<svg xmlns="http://www.w3.org/2000/svg" width="294" height="320" shape-rendering="geometricPrecision" text-rendering="geometricPrecision" image-rendering="optimizeQuality" fill-rule="evenodd" clip-rule="evenodd"><g id="Layer_x0020_1"><g id="layer1"><path id="path0" fill="#A0A1A2" d="M249 1h-1c0 1 0 1-2 1h-3c0 1 0 1 5 1 2 1 5 1 5 1s1 1 3 1c1 0 2 0 2 1h2c3 0 14 8 15 11 0 1 1 2 1 2 1 1 1 2 2 3v1s1 0 1 1v1c1 1 1 2 1 3s1 3 1 3c1 1 0 12 0 13-1 1-1 2-1 2v2c-1 0-1 0-1 1 0 3-10 15-13 16h-1c-1 1-1 1-2 1l-1 1s-1 0-1 1h-2s0 1-1 1-2 1-2 1c1 1 8 0 8 0 0-1 0-1 1-1s3 0 2-1h2l1-1s0-1 1-1c0 1 1 0 1 0 1-1 1-1 2-1h1c0-1 1-1 1-1v-1h1s1 0 1-1v-1h1c0-1 0-1 1-1v-1s1-1 1 0c1 0 1-1 1-1l1-1c0-1 0-1 1-1v-1c0-1 1-1 1-2l1-1v-1s1-1 1-2v-1c1 1 1 0 1-2s0-2 1-2v-7-9c-1 0-1-1-1-3v-2c-1 0-1-1-1-2l-1-1v-1c0-1 0-1-1-1v-1h-1v-1h-1v-1c0-1 0-1-1-2 0 0-1 0-1-1-1 0-1 0-1-1h-1c0-1-1-1-1-1V9s-1 0-1-1h-1c1-1 1-1 0-1s-1 0-1-1h-2s-1 0-1-1V4c-1 1-2 0-2 0 0-1-1-1-2-1-2 0-2 0-2-1h-3c-1 0-2-1-2-1-1-1-10-1-12 0zm-8 2c-1 1-1 1 0 1s1-1 0-1zM42 34v1h-1-4c-3 0-3 1-3 1-1 1-1 1-2 1h-3c0 1 1 1 3 1h4c1-1 4-1 4 0h4c1 0 3 1 3 1 1 0 2 1 3 1h2c0 1 1 1 1 1 1 0 3 1 3 2 0 0 1 0 1 1 2 0 10 9 10 10l1 1c1 1 4 6 4 6v2c0 1 1 2 1 3v4c1 1 1 5 0 6-1 2 2 7 4 7 0 0 3 1 4 3h1l2 2c1 0 1 1 2 1 0 0 1 0 1 1 1 1 2 1 3 2 1 0 2 1 3 2 0 0 1 1 2 1 0 1 2 2 3 2 0 1 2 2 2 2 1 1 2 1 2 2 1 1 2 1 2 1l5 4c0 1 1 1 2 1l2 2 1 1c1 0 2 0 2 1 1 1 2 1 2 1s1 1 2 1l2 2c1 0 2 1 3 3 2 1 3 2 4 2l2 2c1 1 2 2 3 2s1 1 2 1c0 1 1 2 2 2s2 1 2 1c0 1 1 1 1 1s1 1 2 1c2 2 3 2 4 0 0 0 1-1 2-1s1-3 0-3h-1v-1c-1 0-1 0-2-1h-1l-1-1v-1c-1 1-1 0-1 0l-1-1c-1 0-2-1-1-1h-1-1v-1c-1 0-1-1-1-1 0-1 0-1-1-1h-2v-1h-1v-1h-1v-1s0-1-1-1c0 0-1 0-1-1 1 0 0 0 0 0h-1c-1 0-1 0-2-1l-2-2h-1s0-1-1-1c0-1-1-1-2-1s-1 0-1-1c-1 0-1-1-1 0v-1l-1-1h-1c-1 0-2-1-2-2h-1v-1l-1-1h-1v-1c-2 0-2 0-2-1h-1l-1-1v-1c-1 1-3 0-2 0v-1c-1 1-1 1-1 0h-1c1-1 0-1 0-1s-1 0-1-1h-1c-1 0-1-1-2-1 0 0-1-1-1-2-1 0-1-1-1-1h-1-1l-1-1v-1h-1c0-1-1-1-1-1-1 0-1 0-2-1-1 0-1-1-1-1h-1c-1 0-1-1-3-2-1-1-1-1-1-2h-1s0-1 0 0l-1-1c-1 0-1-1-1-1h-1v-1h-1 1c1-1 1-10 0-10s-1-4-1-6v-1c-1 0-1 0-1-1s-1-2-1-2c0-1-1-1-1-2v-1c-1 0-1 0-1-1h-1v-1-1s0-1-1-1-1 0-1-1l-1-1v-1h-1v-1h-1l-1-1c-1 0-1 0-1-1l-2-2c0-1-1-1-2-1s-1-1-1-1l-2-2h-2v-1c-1 0-1 0 0 0h-1-1c-1 0-2-1-2-1l-1-1c-3 1-7 0-7 0 1-1-3-1-6-1zm195 34c0 1-1 1-1 2 0 0 0 1-1 1v1c0 1-1 2-1 2v1l-1 1c0 1-1 1-1 1 0 1-2 5-5 11s-5 11-5 11l-1 1v1c-1 0-1 1-1 1 0 1-1 2-1 2v2c-1 0-1 1-1 1 0 1-1 2-1 2v1l-1 1c0 1-1 1-1 2v1c-1 0-3 5-4 7v1c-1 0-1 1-1 1 0 1-1 1-1 2v1c-1 0-1 1-1 1-3 5-3 7 0 9 2 2 3 4 3 5l1 1c1 1 3 6 3 7s1 2 1 2c0 1 0 2 1 3v4c1 1 1 9 0 10v4c-1 1-1 3-1 3-1 1-1 2-1 2 0 1-3 7-4 9-1 0-2 2-2 2 0 1-1 2-2 3s-1 3 0 4v1c1 1 1 2 2 2 0 1 1 2 1 2 0 1 1 1 1 2 1 0 1 1 2 2 0 1 0 2 1 2 1 1 1 2 1 2 0 1 1 1 1 2l1 1v1l1 1c0 1 0 1 1 2l2 2c1 2 1 3 2 5 1 1 1 2 1 2s1 1 2 1c0 1 1 2 1 3 0 0 0 1 1 1v1c0 1 1 2 2 2 0 1 1 1 1 2 0 0 1 1 1 2l2 2s0 1 1 2c0 1 1 2 2 4 0 1 1 2 1 2l1 1v1l1 1c0 1 1 2 1 3l2 2c0 1 2 2 3 1h17c0 1 1 1 2 1s2 1 2 1h1c1 0 1 1 2 1l1 1c1 0 10 9 11 11 1 0 1 2 2 2 1 1 1 2 1 3 0 0 0 1 1 2v2l1 1c1 2 1 12 0 13v2c-1 2-1 3-1 3s-1 0-1 1c0 3-9 14-14 17-1 0-2 1-2 1h-2c0 1-1 1-1 1 0 1-1 1-2 1s-1 0-1 1h7c0-1 0-1 1-1 2 0 3 0 3-1h1c1 0 2-1 1-1h1s1 0 1-1h1c0-1 0-1 1-1s1 0 1-1c1 0 1 0 1-1h2v-1s0-1 1-1c0 0 1 0 0-1h1s1 0 1-1h1v-1-1h1l1-1c1 0 1-1 1-2 1 0 1-1 1-1v-1-1c1 0 1-1 1-2l1-1s1 0 0 0l1-1v-3-1c1 0 1-14 0-15 0 0 0-1-1-4l-1-2v-2h-1v-1h-1v-1c0-1-1-1-2-2 0-1-1-2-1-2v-1c-1 1-1 0-2-1l-2-2c-1 0-1 0-1-1l-2-2c-1 0-1 0-1-1-2 0-3 0-2-1h-1-1c0-1-1-1-1-1v-1c-2 0-4 0-4-1h-10c-11 0-11 0-10-2h-1v-1h-1v-1c-1 0-1 0-1-1v-1c0 1-1-1-1-2s0-1-1-1-1 0-1-1v-2c0 1-1 0-1-1v-1s-1 0-1-1c-1 0-1 0 0 0l-1-1c0-1-1-2-2-3s-1-2-1-3h-1l-1-1-1-1v-2c-1 0-1-1-1-1v-1-1h-1c0-1 0-1-1-1 0 0-1-1 0-2h-1c-1 0-1-1-1-1v-1c-1 0-1 0-1-1v-1c-1 0-1-1-2-2v-1h-1v-1c-1 0-1 0-1-1v-1c-1 0-1-1-1-1 0-2 0-2-1-2s-1-1-1-2v-1h-1v-1h-1v-2c0-1 0-1-1-1 0 0-1 0-1-1-1 0-1 0-1-1s0-2-1-2c0-1 0-1-1-1v-1c0-1-1-1-1-1v-1c-1 0-1-1 0-1s1 0 0-1l1-1c0 1 1 0 1 0 0-2 0-2 1-2v-1c1 0 3-2 3-3v-2c1 0 1-1 1-1 0-1 0-1 1-1v-2c0-1 1-2 2-2-1-2 0-6 0-6 1-1 1-14 1-14h-1s-1-4 0-6c0 0-1-1-1 0-1 0-1-3-1-4-1 0-1-1-1-2s0-1-1-1v-2s0-1-1-1c0 1-1-1-1-2h-1v-1s0-1-1-1c0-1 0-1-1-1 0 0-1 0 0 0l-1-1c-1 0-1-3 0-3l1-1v-1-1h1c0-1 0-2 1-3v-1l1-1c0-1 1-2 1-2 1 0 1-1 1-2v-1c1 0 1-1 1-2 0 0 0-1 1-1 0-1 1-2 1-3 1 0 1-1 1-1 0-1 0-1 1-1v-1s0-2 1-2v-2l1-1v-1l1-1v-1l1-1v-1c1 0 1-1 1-2s0-1 1-2h1c-1-1 0-2 0-2h1c0-1 0-2 1-3v-1s0-1 1-1v-1s1-1 1-2l1-1v-1h1c0-2 0-2 1-3v-1c0-1 0-1 1-1v-1h1c-1-1 0-1 0-2 1 0 1-1 1-1 0-1 0-2 1-1v-1s0-1-1-1h-1c0-1-1-1-2-1s-2-1-2-1h-1zM63 98c-1 0-2 2-3 3-2 1-3 2-5 3s-3 2-3 2h-1c-1 0-1 1-2 1 0 1 0 1-2 1-1 0-2 0-2 1v1l3-1h4c0-1 1-1 3-1s3 0 3-1c-1 0 0 0 0 0 1 0 1 0 1-1h1c-1 1-1 1 0 1v-1c0-1 1-1 2-1 1-1 1-1 2-1s2 0 1-1l1-1h1v-1c1 0 1 0 0-2s-3-2-4-1zm110 20h-3c-1 0-2 1-2 2h7c4 0 6 0 7 1h2c1 1 3 1 3 1 2 1 3 1 3-2 1-2 1-2 0-2 0-1-2-1-9-1-5 0-8 0-8 1zm-9 2c0 1 0 1 2 1 1 0 1 0 1-1 0 0-2-1-3 0zm-96 52c0 1 0 1-1 1h-3c0 1 4 2 10 2h2c1 0 2 1 3 1s3 1 5 1l2 2h1l1 1c1 0 2 0 3 1 0 1 1 1 2 1 1 1 5 5 6 7 0 1 1 1 2 0h1c1 0 3-2 3-2 0-1 1-1 1-1l1-1h-1c1 0 0 0 0 0-1 0-3-3-3-4h-1l-1-1v-1h-2v-1h-1c0-1 0-1-2-1-1 0-1 0-1-1 0 0 0-1-1-1s-3 0-2-1h-1c-1 0-1 0-1-1h-3c-2 0-2 0-2-1-1-1-15-1-16 0-1 0-1 0 0 0v-1l-1 1zm-8 3h2v-1h-1l-1 1zm7 13l-1 1h-2c-4 0-9 4-11 7-1 1-1 2-1 2-1 1-3 4-3 5v2c-1 1-1 1-1 5v5l2 3 2 4c1 3 4 5 9 7l4 3h5c4 0 4 0 5-1l1-1c1 0 2 0 2-1 0 0-1 0-3-1h-3c0-1 0-1-1-1h-2c0-1 0-1-1-1s-1 0-2-1h-1c-1 0-1 0-1-1 0 0-1-1-1 0v-1c0-1-1-1-1-1-1 0-1 0-1-1h-1v-1-1c-1 0-2-3-1-3h-1v-1c0-1-1-2-1-2-1 0-1-1-1-4 0-4 0-4 1-4 0 0 1 0 1-1-1-1 0-3 0-3 1 0 1 0 1-1v-1l1-1c0-1 1-1 1-1v-1c0-1 1-1 1-1 1 0 1 0 1-1-1 0 0-1 1-1 0 0 0-1 1-1h1c1-1 2-1 3-1v-1h2c1 0 1 0 1-1s-3-1-5-1zm74 2c-1 1-2 1-2 1s-1 1-2 1c0 0-1 0-1 1h-1s-13 7-15 7c0 1-1 1-1 1l-1 1c-1 0-2 0-3 1s-2 1-2 1l-1 1c-1 0-2 0-2 1h-1c-3 0-3 1-3 6v4s-1 1-1 3c0 1-1 3-1 4-1 2-1 3-1 3s-1 0-1 1c0 0-1 0-1 1 0 0 0 2-1 3-1 0-2 1-2 2l-7 7s-1 0-2 1-2 1-2 1c0 1-1 1-1 1s-1 1-2 1-2 0-2 1h-2c-1 0-1 0-1 1s0 1 3 1c4 0 4 0 4-1s0-1 2-1h2c-1 0 0-1 2-1 1 0 1 0 2-1h1s1 0 1-1c1 0 1-1 1-1h0c-1 0 1-1 2-1h1l1-1c0-1 1-2 1-2h1c0-1 0-1 1-1v-1h1s1 0 0-1h1v-1h1v-2h1v-1c1 0 1-1 1-2s1-1 1-1v-1c1-1 1-2 1-2 0 1 1 0 1-1 0 0 0-1 1-2v-2c0-2 0-2 1-2v-1c0 1 1-2 1-4v-5s1-1 2-1h1c0-1 2-1 3-1 0-1 0-1 1-1l1-1c1 0 1-1 2-1h1l1-1c1 0 1 0 2-1h2s0-1 0 0c0 0 1 0 0-1h2s1 0 1-1c-1 0 1-1 2-1h1c0-1 0-1 1-1 0 0 1 0 1-1h1c1 0 2-1 2-1 2-1 2-2 1-3s-1-1-2-1zm48 13c0 1-1 1-2 1h-2c0 1 5 2 5 1 1-1 0-2-1-2z"/><path id="path1" fill="#3C448C" d="M238 5c0 1 3 2 5 1 1 0 10-1 11 0 0 0 1 1 2 1 2 0 2 0 3 1h1s1 0 2 1h1l1 1 1 1c1 0 2 1 3 2s2 1 2 1v1c0 1 1 1 1 1h1v1c1 0 1 1 1 1v1h1s0 1 1 1v1c0 1 1 1 1 2l1 1v2c1 0 1 1 1 2s0 2 1 2v14c-1 1-1 1-1 2s0 2-1 2v2c0 1 0 1-1 1 0 0-1 1-1 2v1c-1 0-1 0-1 1s-7 7-8 8h-1l-1 1c-1 0-1 0-1 1h-2c-1 0-1 1-2 1 0 0-1 1-2 1h-2c0 1-1 1-3 1-4 0-5 1-5 2 1 1 2 1 2 0s0-1 3-1c2 0 3 0 4-1 1 0 2-1 3-1s2-1 2-1h1c1-1 1-1 2-1v-1c1 0 4-2 7-5l5-5v-2c1-1 2-4 3-5v-2c1-2 1-14 0-16v-2c0-1-3-7-4-7 0-1-1-1-1-2-2-3-8-9-9-9h-1c-1-1-3-1-6-2l-4-2h-14c-1-1-2-1-2 0zm-2 1c0 1 1 1 1 1 0-1 0-1-1-1zM34 39H24v1c0 1 1 1 1 1h2s1 0 4-1h4c1-1 6-1 6 0h4c3 1 3 1 4 1 0 1 0 1 1 1h2c0 1 1 1 1 1s1 0 1 1h1c1 0 1 1 1 1 1 0 1 1 1 1h1c0 1 0 1 1 1 0 1 1 1 1 1l3 3c0 1 1 1 1 2 1 0 1 1 2 1v1c1 0 1 0 1 1v1c1 0 1 1 1 1 0 1 0 1 1 2l1 1v2s1 1 1 3v3c1 1 1 8 0 9 0 0 0 1 1 2 1 2 2 3 3 3l1 1s0 1 1 1l1 1s1 0 1 1h1l1 1 1 1s1 0 1 1c2 1 3 1 3 2 1 0 2 1 3 1 1 1 1 1 2 1v1h1c0 1 0 1 1 1s1 1 1 1l1 1s1 0 1 1c1 0 2 1 2 1s1 0 1 1h1l1 1s0 1 1 1h1c0 1 0 1 1 1 0 0 1 0 1 1 1 0 1 1 1 1 1 0 1 1 1 1l1 1c1 0 2 0 2 1 1 0 1 0 1 1h2v1c0 1 1 1 1 1h1s0 1 1 1 1 1 1 1c1 0 1 1 1 1h1v1h2c0 1 0 1 1 1l1 1c1 0 1 1 1 1l1 1s1 0 2 1c0 0 1 0 1 1h1v1h1v1c1 0 1 1 1 1h1c1 1 1 1 2 1v1h1c1 0 1 1 1 1 1 0 1 1 1 1h2c0 1 1 1 1 1h1v1l1 1h1s0 1 1 1l1 1c1 0 1-1 2-1 0 0 0-1 1-1v-1h1l1-1c1 0 1 0 1-2 0-1 0-1-1 0 0 2-5 5-6 4 0 0-3-2-4-2v-1c-1 0-3-2-3-2h-1c0-1-1-1-2-2-1 0-2-1-3-2-1 0-2-1-3-2s-2-2-3-2c0-1-2-2-3-3-1 0-2-1-2-1s-4-3-6-4c-1-1-2-1-2-1 0-1-2-2-2-2-1 0-1 0-1-1-1-1-4-3-7-5-2-1-4-3-5-4-2-1-3-2-3-2s-1-1-2-1l-3-3c-1 0-2-1-2-1-1-1-2-1-2-1-1 0-1-1-3-2l-1-1s-1 0-1-1c-1-1-2-1-3-2s-3-2-3-3l-2-1v-6c0-7-1-14-3-16-1-1-1-1-1-2 0 0-1-1-1-2l-3-3-2-2c-1-2-4-3-5-4s-2-1-2-2h-1c-4-3-13-5-20-4zm202 27c0 1-1 1-1 1v2c-1 0-1 1-1 1s0 1-1 1v1c0 1-1 1-1 2l-1 1v1c-1 0-1 1-1 1v2c-1 0-1 0-1 1 0 0 0 1-1 1 0 1-1 1-1 2v1c-1 0-1 1-1 1v1c-1 0-1 1-1 2 0 0 0 1-1 1v1c-1 1-1 2-1 2s-1 0-1 1v1c-1 0-1 1-1 2 0 0 0 1-1 1v1c0 1-1 2-1 2l-1 1v2c-1 0-1 1-1 2v1c-1 0-1 0-1 1s-1 1-1 1v2c-1 0-1 1-1 1l-1 1v2c-1 0-1 0-1 1 0 0 0 1-1 1v2l-1 1c-1 0-1 0-1 1v1c-1 0-1 1-1 2 0 0 0 1-1 1v1c0 1-1 1-1 1v1c0 1-1 2-1 2l-1 1v2c-1 0-1 0-1 1l1 1c0 1 0 1 1 1 0 1 1 1 1 2l1 1v1h1c0 1 0 1 1 1v1c0 1 1 1 1 2 0 0 1 0 1 1v1c1 0 1 1 1 1s0 1 1 1v2c0 1 1 2 1 2v3c1 2 1 3 1 3 1 0 1 12 0 12 0 0 0 1-1 3v3l-1 1v2c-1 0-1 1-1 2 0 0 0 1-1 1v1l-2 2c0 1-1 2-1 2s0 1-1 1v1l-1 1-1 1-1 1-1 1s0 1 1 1v1c0 1 1 1 1 2l1 1s0 1 1 2c0 0 0 1 1 1 0 1 0 1 1 1v1c0 1 1 1 1 2h1v1l1 1c0 1 0 1 1 1v1c0 1 1 1 1 2v1c1 0 1 1 1 1s1 0 1 1v1c1 0 1 1 1 1s0 1 1 1v1c0 1 1 1 1 1 0 1 1 1 1 2v1c1 0 1 0 1 1l1 1s1 1 2 3v1c1 0 1 0 1 1v1c1 0 1 1 1 1 0 1 0 1 1 1v1c0 1 1 1 1 1 1 0 1 1 1 1v1c1 0 1 1 1 1v1c1 0 2 3 3 4 1 0 1 1 1 1 0 1 0 2 1 2 0 1 1 1 1 2l1 1v1c1 1 1 1 1 2 1 0 1 1 1 1 0 1 1 2 1 2l1 1c0 1 1 1 1 2v1h2c0 1 0 1 1 0h19c0 1 1 1 2 1s2 1 2 1l1 1h1c0 1 1 1 1 1s1 0 2 1c0 1 1 1 2 1v1c0 1 1 1 1 1h1v1l1 1c0 1 0 1 1 1v1l1 1h1v2c1 0 1 1 1 1s0 1 1 1v1c0 1 0 1 1 1v2c0 1 1 2 1 3 1 0 1 1 1 6 0 6 0 6-1 7 0 0-1 0-1 2v2c-1 0-1 1-1 2v1c-1 0-1 1-1 1l-1 1v1c0 1-1 1-1 1l-1 1v1h-1l-4 5h-1c0 1-1 1-1 1s-1 0-1 1h-1c-1 0-1 1-1 1h-1c-1 0-1 1-2 1 0 0-1 1-2 1h-2c-1 1-1 1-4 1-4 0-4 0-5 1v1h8c-1 0 2-2 4-3 2 0 8-3 9-5 3-2 7-7 8-9 1-1 1-1 1-2 1-1 2-3 2-4s0-2 1-3v-14c-1-1-1-2-1-2 0-1 0-2-1-2 0-1 0-2-1-2-1-3-3-6-7-10-3-3-4-4-6-5h-1c-3-3-17-4-21-3-3 1-6 0-6-1s-1-2-1-3c-2-2-2-3-4-5-2-4-2-6-3-7-1 0-1-1-1-1s-1-1-1-2c-1-1-1-2-2-2 0 0-1-2-2-3s-2-3-2-4c-1-1-1-2-2-2 0-1-2-3-4-8-1-1-2-3-2-3s-1 0-1-1c0 0 0-1-1-1v-1c0-1-1-2-1-2-1-1-1-2-1-3-1 0-1-1-1-1-1 0-1-1-1-1v-1s-1 0-1-1l-1-1v-1c-1 0-1-1-1-1l-1-1v-1c-1 0-1 0-1-1-3-5-3-5-2-6l3-3c0-1 1-2 2-3 0 0 1-2 2-3 0-1 1-2 1-3l1-1v-2s1-1 1-3c0-1 0-2 1-3 2-4 0-18-4-25-2-4-4-7-6-9s-2-2 5-18c4-7 7-13 7-13s2-5 2-6c1 0 1-1 1-1 0-1 6-12 6-13 0 0 1-1 1-2 1-1 1-2 2-3v-1l1-1s1-3 3-6l2-5h2c1 0 2 1 3 1h1l1 1 1 1v-1c0-1 0-1-1-1s-1 0-1-1h-3c-1 0-2-1-2-1h-1zM2 74v-3 3zm243-4h1c1 0 1 0 0 0h-1zM5 87c0 1 1 1 1 1 0 1 0 1 0 0l-1-1c-1 0-1 0 0 0zm2 6h1l1 1v1c1 0 1 0 0-1-1-2-2-2-2-1zm56 2v1h-1c0 1-1 1-1 1v1h-1c-2 2-2 2-3 2v1l-1 1h-2c0 1-1 1-1 1v1h-1c-1 0-2 0-2 1h-3c-1 0-2 1-2 1-1 1-1 1-3 1-3 0-6 1-5 2 1 0 2 0 2-1h2c2 0 3 0 4-1s2-1 3-1 3-1 5-2c0 0 1-1 2-1 2-1 4-2 7-5 2-3 3-3 4-2 2 1 2 2 2 3 0 2 1 2 1 0 0-3-4-5-6-4zm128 24c1 1 1 2 0 2v2c-1 1-2 2-3 1 0 0-1-1-2-1s-2 0-3-1c-1 0-15-1-16 0h-5c-3 0-3 0-3 1 1 0 1 0 0 0 0 1 3 2 3 1s0-1 3-1h2c1-1 15-1 15 0 0 0 1 0 3 1h2s1 1 2 1c2 0 2-1 2-2 0 0 0-1 1-1v-3c-1-1-1-1-1 0zm-60 54c0 1 1 2 2 2s0-2-1-2h-1zm-1 1c-1 0-1 0-1 1-1 0-1 0 0 0 1 2 2 1 2 0s0-1-1-1zm-67 2c-1 1-2 1-4 1h-1c1 1 5 1 5 0 1-1 13-1 14 0 0 1 1 1 2 1h2c0 1 1 1 2 1s1 1 2 1l1 1h1c1 1 1 1 2 1l1 1c1 0 1 1 1 1h1s1 0 1 1l1 1c0 1 1 1 1 1 0 1 1 1 1 1s1 1 1 2c2 2 3 3 3 1h1c1 0 2 0 2-1h1c1 0 2-2 3-3v-1c-1 0-1 1-1 1s-2 2-3 2l-1 1c-1 1-3 1-4 0 0-2-5-6-6-7-1 0-2-1-2-1s-1-1-2-1c-1-1-1-1-2-1l-1-1s-1 0-2-1c-1 0-2-1-3-1h-2c0-1-3-1-7-1h-7-1zm62 0v1h-1c0 1 0 2-1 1h-1v1h-1c0 1 3 1 3 0h1c1 0 2-1 2-1 0-1 0-1-1-1 0-1 0-1 1 0 0 0 2 0 2-1h-1c-1-1-3 0-3 0zm-77 5v1c-1 0-1 0 0 0 0 0 1-1 0-1zm18 6h-2c-1 0-2 1-3 1s-2 1-2 1h-1s0 1-1 1h-1v1c-1 0-3 2-3 3l-1 1s-1 0-1 1l-1 1s0 1-1 1v2h-1s-1 2-1 3v2c-1 1-1 9 0 10v2c0 1 1 2 1 2l1 1v2c1 0 1 0 1 1h1v1c0 1 5 6 6 6h1c0 1 1 1 1 1 1 0 1 0 1 1h3c1 0 1 1 1 1 1 1 1 1 5 1s5 0 5-1c1 0 2-1 2-1h3c0-1 1-1 1-1l1-1s0-1 1-1 1 0 1-1-2-1-2 0 0 1-1 1c0 1-1 1-1 1l-1 1s-1 1-2 1-2 0-3 1h-7c-1-1-2-1-3-1 0 0-1 0-1-1-1 0-2 0-3-1-2-1-2-1-5-4s-6-8-6-11l-1-1c-1-1-1-7 0-8 0 0 1-1 1-2v-2c1-1 1-1 1-2 1-3 6-8 8-9 1-1 4-2 5-3 7-1 11-1 11 1 0 0 0 1 1 1 0 0 0-1-1-3-1-1-5-2-7 0zm74 2h-1c-1 0-1 1-2 1s-1 0-1 1h-1c-1 0-1 0-1 1h-2l-1 1-1 1h-2c0 1-1 1-1 1s-1 0-1 1h-1c-1 0-1 1-1 1h-1c-1 0-1 1-2 1 0 0 0 1-1 1h-2c0 1-1 1-1 1-1 0-1 0-2 1h-1l-1 1c-1 0-1 1-2 1h-1c0 1-1 1-2 1 0 0-1 0-1 1h-1c-2 1-2 1-2 7v5c-1 0-1 1-1 2v2c-1 1-1 2-1 2 0 1 0 2-1 2 0 0-1 0-1 1v1l-1 1v1c-1 0-1 0-1 1 0 0-1 1-1 2-1 1-2 1-2 1 0 1-3 3-3 3v1l-1 1h-1s0 1-1 1-1 1-1 1h-1s-1 0-1 1c-1 0-2 1-2 1h-2c0 1 0 1-2 1-1 0-2 0-2 1h-4c-4 0-4 1-4 2v1h3c4 0 4 0 4-1s2-2 6-3c3-1 5-2 6-3l2-2c2-1 5-4 6-6l2-2v-1s1 0 1-1l2-4s0-1 1-1c0 0 0-1 1-3 0-1 0-2 1-3v-5c0-5 0-6 3-7 2-1 4-2 5-2 2-1 3-2 3-2h2c0-1 1-1 1-1 1-1 1-1 2-1h1c0-1 1-1 1-1 1 0 1-1 1-1h2c0-1 1-1 1-1s3-2 6-3c3-2 6-3 7-3 2-2 4-1 4 2v-3s-3-1-4 0zm-101 1v1c-1 0-1 0 0 0l1-1h-1zm44 4v1c0-1 1 0 1 0v1h1l-1-1-1-1c0-1 0-1 0 0zm65 3c0 1 1 1 1 1 1 1 1 1 1 0 0 0-1 0-1-1h-1zm-113 2v0c1-1 1-1 0 0zm150 3c0 1-1 1-2 1h-1-1c-1 0-1 1-1 1 1 1 0 1 0 1h1c2 0 2 0 3-1 0-1 3-2 5-2s2 0 2 1c0 2 1 2 1 0 0-1-1-2-4-2-2 0-3 1-3 1zm-26 1c0 1 2 1 1 1v-1h-1zm51 34h0c0-1 0-1 0 0zm11 51v-3 3z"/><path id="path2" fill="#6C7494" d="M241 4c-1 0-1 0 0 0 0 0 0-1 1-1v1c-1 1 0 1 0 1 1 0 1-1 2-1h5c10 1 22 7 25 14 1 0 1 1 2 2 0 0 1 1 2 3 0 1 1 3 1 3v1c0 1 1 2 1 3 2 6 1 15-3 22 0 0-1 1-1 2-2 5-13 13-17 13-1 0-4 2-4 3h1c0-1 1-1 2-1s1-1 1-1h2c0-1 1-1 1-1l1-1c1 0 1 0 2-1h1c3-1 13-13 13-16 0-1 0-1 1-1v-2s0-1 1-2c0-1 1-12 0-13 0 0-1-2-1-3s0-2-1-3v-1c0-1-1-1-1-1v-1c-1-1-1-2-2-3 0 0-1-1-1-2-1-3-12-11-15-11h-2c0-1-1-1-2-1-2 0-3-1-3-1s-3 0-6-1c-6 0-6 0-6 1zM29 37v1l1-1c1 0 1 0 0 0h-1zm7 1h-2-1c0 1 1 1 2 1 6-1 17 1 21 4l1 1c2 1 9 9 10 10 0 1 1 2 1 2 3 2 6 14 5 22l-1 2 2 1c1 1 2 2 3 2l2 2c2 2 4 3 6 4 1 1 2 1 3 2 0 0 1 1 2 1 0 1 1 1 2 2s2 2 3 2c1 1 2 2 3 2 0 1 2 2 2 2 4 2 7 5 9 7 0 0 1 1 2 1 1 1 3 2 4 2 0 1 2 2 3 3s2 1 2 1c0 1 1 1 2 2 1 0 3 1 3 2 1 1 3 2 4 3 0 0 2 1 2 2 2 1 4 3 6 4 1 0 2 1 2 1 1 1 2 2 3 2 1 1 2 1 2 2 1 0 2 0 3-1s2-2 3-2v-3 2l-1 1c-1 0-2 1-2 1-1 2-2 2-4 0-1 0-2-1-2-1s-1 0-1-1c0 0-1-1-2-1s-2-1-2-2c-1 0-1-1-2-1s-2-1-3-2l-2-2c-1 0-2-1-4-2-1-2-2-3-3-3l-2-2c-1 0-2-1-2-1s-1 0-2-1c0-1-1-1-2-1l-1-1-2-2c-1 0-2 0-2-1l-5-4s-1 0-2-1c0-1-1-1-2-2 0 0-2-1-2-2-1 0-3-1-3-2-1 0-2-1-2-1-1-1-2-2-3-2-1-1-2-1-3-2 0-1-1-1-1-1-1 0-1-1-2-1l-2-2h-1c-1-2-4-3-4-3-2 0-5-5-4-7 1-1 1-5 0-6v-4c0-1-1-2-1-3v-2s-3-5-4-6l-1-1c0-1-8-10-10-10 0-1-1-1-1-1 0-1-2-2-3-2 0 0-1 0-1-1h-2c-1 0-2-1-3-1 0 0-2-1-3-1h-4c0-1-3-1-4 0zm-6 0c2 1 3 1 2 0h-2zm254 17v1h-1c1 0 2-1 1-1zm-47 13c-1 0-12 23-13 25 0 1-1 1-1 2s-4 9-4 9c-1 1-3 6-6 11-6 13-8 17-8 18 0 0 1 2 2 3 4 4 8 12 9 17 0 1 0 3 1 4v11s-1 2-1 3c0 2-1 4-1 4 0 1-1 2-1 2 0 1-3 7-4 8 0 1-1 2-2 3s-2 2-2 3l-1 1 1 3c1 1 2 3 3 4 0 1 1 1 1 2v1c1 0 1 1 2 2 0 1 1 2 2 3 0 1 1 2 3 6 1 1 1 2 2 3 0 0 1 2 2 3 1 2 2 4 4 7 1 1 2 2 2 3 1 2 2 3 3 4 0 1 2 3 2 4 1 1 1 2 2 2 1 1 2 4 4 9 1 1 2 3 3 4s1 1 1 2 3 3 5 2c1-1 14-1 15 0h3c4 1 13 9 17 14 0 1 1 2 1 2 1 1 2 3 2 5 6 18-4 35-22 42-1 0-2 1-1 1h1c0-1 0-1 1-1s2 0 2-1c0 0 1 0 1-1h2s1-1 2-1c5-3 14-14 14-17 0-1 1-1 1-1s0-1 1-3v-2c1-1 1-11 0-13l-1-1v-2c-1-1-1-2-1-2 0-1 0-2-1-3-1 0-1-2-2-2-1-2-10-11-11-11l-1-1c-1 0-1-1-2-1h-1s-1-1-2-1-2 0-2-1h-17c-1 1-3 0-3-1l-2-2c0-1-1-2-1-3l-1-1v-1l-1-1s-1-1-1-2c-1-2-2-3-2-4-1-1-1-2-1-2l-2-2c0-1-1-2-1-2 0-1-1-1-1-2-1 0-2-1-2-2v-1c-1 0-1-1-1-1 0-1-1-2-1-3-1 0-2-1-2-1s0-1-1-2c-1-2-1-3-2-5l-2-2c-1-1-1-1-1-2l-1-1v-1l-1-1c0-1-1-1-1-2 0 0 0-1-1-2-1 0-1-1-1-2-1-1-1-2-2-2 0-1-1-1-1-2 0 0-1-1-1-2-1 0-1-1-2-2v-1c-1-1-1-3 0-4s2-2 2-3c0 0 1-2 2-2 1-2 4-8 4-9 0 0 0-1 1-2 0 0 0-2 1-3v-4c1-1 1-9 0-10v-4c-1-1-1-2-1-3 0 0-1-1-1-2s-2-6-3-7l-1-1c0-1-1-3-3-5-3-2-3-4 0-9 0 0 0-1 1-1v-1c0-1 1-1 1-2 0 0 0-1 1-1v-1c1-2 3-7 4-7v-1c0-1 1-1 1-2l1-1v-1s1-1 1-2c0 0 0-1 1-1v-2s1-1 1-2c0 0 0-1 1-1v-1l1-1s2-5 5-11 5-10 5-11c0 0 1 0 1-1l1-1v-1s1-1 1-2v-1c1 0 1-1 1-1 0-1 2-2 2-2s1 1 2 1 2 0 2 1c1 1 1 1 1 0l-2-2h-2c-1-1-2-1-2 0zM87 81c0 1 1 2 1 2h1l-1-1h-1v-1zM61 99c-4 3-11 8-13 8h-1s-1 0-2 1h-1c0 1 0 1-3 1h-2 6c0-1 1-1 2-1 2 0 2 0 2-1 1 0 1-1 2-1h1s1-1 3-2 3-2 5-3c1-1 2-3 3-3 2-2 4-1 4 1 0 1 1 1 1 1 1 0-1-3-3-3l-1-1-3 3zm129 21c0 3-1 3-3 2 0 0-2 0-3-1h-2c-1-1-3-1-7-1h-8c0 1-2 1-3 0v1c0 1 4 1 5 0 0-1 0-1 0 0h6c6 0 7 0 13 2h2s2-3 1-4l-1 1zM64 174c0 1 3 1 7 1 6 0 9 1 17 5 1 1 2 1 3 2 0 0 1 1 2 1 2 2 5 5 5 6 1 2 2 2 4 0 3-2 4-2 4-2v-1h1c-1 0-2 0-2 1 0 0-2 2-3 2h-1c-1 1-2 1-2 0-1-2-5-6-6-7-1 0-2 0-2-1-1-1-2-1-3-1l-1-1h-1l-2-2c-2 0-4-1-5-1s-2-1-3-1h-5c-2 0-5-1-6-1h-1zm-2 0v2c-1 0-1 0 0 0l1-1c0-1 0-1-1-1s-1 0 0 0zm42 8v1c1 1 2 1 1 1v-1h-1v-1zm-38 6s-1 1-2 1c-2 0-4 1-7 2l-5 5c0 1-1 2-1 2-1 1-2 3-3 6-2 6-1 10 3 18 4 7 16 12 23 10 1-1 2-1 3-1s3-3 1-3v1c0 1 0 1-2 1l-1 1c-1 1-1 1-5 1h-5l-4-3c-5-2-8-4-9-7l-2-4-2-3v-5c0-4 0-4 1-5v-2c0-1 2-4 3-5 0 0 0-1 1-2 2-3 7-7 11-7h2c1-1 1-1 4-1 2 0 2 0 2 1 0 0 0 1 1 1v-2h-7zm150 2h-1c1 0 1-1 1-1v1zm-91 7c-9 5-17 9-17 9-2 0-2 1-2 5 0 5-2 9-4 14-2 4-2 5-3 5 0 1-1 2-1 2-1 2-6 7-7 7-1 1-2 1-2 2-1 0-4 2-6 2-1 0-1 1-2 1 0 0-1 1-2 1s-2 2-1 2 1-1 1-1c0-1 0-1 1-1h2c0-1 1-1 2-1s2-1 2-1 1 0 1-1c0 0 1 0 2-1s2-1 2-1l7-7c0-1 1-2 2-2 1-1 1-3 1-3 0-1 1-1 1-1 0-1 1-1 1-1s0-1 1-3c0-1 1-3 1-4 0-2 1-3 1-3v-4c0-5 0-6 3-6h1c0-1 1-1 2-1l1-1s1 0 2-1 2-1 3-1l1-1s1 0 1-1c2 0 15-7 15-7h1c0-1 1-1 1-1 1 0 2-1 2-1 2-1 4-1 4 1l1 2v-2c0-1-1-3-2-3 0 0-8 4-17 8zm64 6h-2c-2 1-3 1-3 1 0 1 1 1 1 1v-1h2s1 0 2-1c1 0 2 1 1 2 1 0 1-1 0-2 0-1 0-1-1 0z"/><path id="path3" fill="#394581" d="M237 5l-1 1h1v1h-1c-1-1-2-2-2-1s0 1-2 1c0 0-1 0-1 1h0s0 1-1 1c-1-1-1-1-1 0 0 0 0 1-1 1 0 1 0 1-1 1h-1v2c-1-1-1-1-1 0 0 0 0 1-1 1-1-1-1 0 0 0 1 1 0 1 0 1h-2c0 1 0 1-1 1v1c0 1 0 1-1 1 0-1 0 0 0 0 1 1 1 1 0 1 0 1 0 2-1 2v-1l-1 1v2c-1 0-1 0-1 1v2c-1 1-1 2-1 12v9c1 0 1 0 1 1v2c1 0 1 0 0 0v1c1-1 1 0 1 2 0 1 1 2 1 2h1v1c0 1 0 1 0 0h1s-1 0 0 1h-1v1c0 1-1 1-1 1h-1c1 1 0 2 0 2l-1 1c0 1 0 2-1 2v2c0 2-1 3-1 2-1 0-1 1-1 1v1c-1 1-1 1-1 2s0 1-1 1v1c0 1-1 2-1 2 0 1 0 2-1 2l-1 1c0 2 0 2-1 2v1c0 1 0 2-1 2 0 1 0 2-1 2s-1 0-1 1v2c-1 0-1 1-1 1v1c-1 0-1 0-1 1s0 2-1 2c0 1 0 3-1 3 0-1-1-1-1 1 0 1 0 1-1 1v1c0 1-1 2-1 2s-1 0 0 0c0 1-1 3-1 3v-1l-1 1c0 1 0 2-1 2v1c0 1 0 2-1 2v2c0 1 0 2-1 1v1c-1 2-1 2-2 2 0 0 0 2 1 3v3c-1 0-1 1-1 1 0 1 0 2-2 2-1 0-2-1-2-1h-2c-2-1-3-1-3-1 0-1-14-1-15 0h-2c-3 0-3 0-3 1s-1 1-2 0-2-1-1-1 1 0 0 0c-1-1-2-1-1 0 0 1 0 1-1 1 0-1-2 0-2 0 0 1-1 1-1 1-1 0-2 0-2 1-1 0-1 0-1 2 0 1 0 2-1 2l-1 1h-1v1c-1 0-1 1-1 1-1 0-1 1-2 1l-1-1c-1 0-1-1-1-1h-1l-1-1v-1h-1s-1 0-1-1h-2s0-1-1-1c0 0 0-1-1-1h-1v-1c-1 0-1 0-2-1h-1s0-1-1-1v-1h-1v-1h-1c0-1-1-1-1-1-1-1-2-1-2-1l-1-1s0-1-1-1l-1-1c-1 0-1 0-1-1h-2v-1h-1s0-1-1-1c0 0 0-1-1-1s-1-1-1-1h-1s-1 0-1-1v-1h-2c0-1 0-1-1-1 0-1-1-1-2-1l-1-1s0-1-1-1c0 0 0-1-1-1 0-1-1-1-1-1-1 0-1 0-1-1h-1c-1 0-1-1-1-1l-1-1h-1c0-1-1-1-1-1s-1 0-2-1c0-1-1-1-1-1l-1-1s0-1-1-1-1 0-1-1h-1v-1c-1 0-1 0-2-1-1 0-2-1-3-1 0-1-1-1-3-2 0-1-1-1-1-1l-1-1-1-1h-1c0-1-1-1-1-1l-1-1c-1 0-1-1-1-1l-1-1c-1 0-2-1-3-3-1-1-1-2-1-2 1-1 1-8 0-9v-3c0-2-1-3-1-3v-2l-1-1c-1-1-1-1-1-2 0 0 0-1-1-1v-1c0-1 0-1-1-1v-1c-1 0-1-1-2-1 0-1-1-1-1-2l-3-3s-1 0-1-1c-1 0-1 0-1-1h-1l-1-1v-1h-2c0-1-1-1-1-1s-1 0-1-1h-2c-1 0-1 0-1-1-1 0-1 0-4-1h-4c0-1-5-1-6 0h-4c-3 1-4 1-4 1h-3c1-1 0-2 0-1h-1c0 1 0 1-2 1-1 0-2 1 0 1h-2c-1 0-1 0-1 1h-1l-1 1c1 0 0 1 0 1h-1v1h-1c0 1-1 1-1 2h-1c1 1 0 1 0 1h-1c0 1 0 1-1 1 0 1-1 1-1 1v1c0 2-1 2-1 2H7c0 1 0 1-1 1v1c0 1-1 2-1 2v1l-1 1v1c-1-1-1 0 0 1H3v5c-1 0-1 1-1 7v6c1 0 1 1 1 3 0 1 0 1 1 2H3v1c1 0 1 0 1 1h1c1 0 1 1 1 2v1c1 0 1 0 0 0v1c1 0 1 0 1 1l1 1v1h1s1 1 1 2c1 0 1 1 1 1s0 1 1 1c0 1 3 3 4 3v1c0 1 0 1 1 1 0-1 1 0 1 1 1 0 2 0 2 1h1l2 1c0 1 0 1 1 0 0 1 0 1 1 1h1c-1 1 0 1 2 1s4 0 3 1h6v-1c0-1 2-1 5-1 2 0 2 0 3-1 0 0 1-1 2-1h3c0-1 1-1 2-1h1v-1s1 0 1-1h2l1-1v-1c1 0 1 0 3-2h1v-1s1 0 1-1h1c0-1 3-1 5 0 1 1 1 1 1 3s0 2 1 2l1 1v1h1v1c1 0 2 0 1 1h1c2 0 2 0 2 1s0 1 1 1c0 1 0 1 1 1 0 1 0 1 1 1h2v1c0 1 1 1 1 0v2h2c1 0 1 0 1 1h1c0 1 1 1 2 1s1 1 1 1 0 1 1 1c0 1 0 1 1 1l1 1c-1 0-1 0 0 0s2 0 2 1c0 0 0 1 1 1 0 1 1 1 1 1h1s-1 1 0 1h1c1 0 1 1 1 1s0 1 1 1v-1 1c1 1 1 1 2 1h1s0 1 1 1v1h1c1 0 1 0 1 1 0 0 0 1 1 1s2 0 1 1h1c1 0 1 0 1 1 1 0 1 1 1 2h3c0 1 0 1 1 1s1 1 0 1h1c1 0 2 0 1 1h1s1 1 1 2v-1h1c-1 1 0 1 0 1h1c0 1 1 1 1 1s1 0 1 1c1 0 1 1 1 1s0 1 1 1c0 1 3 1 3 1h0v1c1 0 1 0 1 1h1s1 0 1 1c-1 0-1 1 0 1 2 0 2 0 2 1h1c0-1 0 0 0 0 0 1 0 2-1 2v5h-1v1s-1 2 0 8v7l1 1v2c1 1-1 1-2 0 0-1 0-1-1-1 0 0 0 1 1 1 0 0 0 2-1 2 0 0-1 0-1-1s-1-1-1 0v1h1c0 1 0 1-1 1s-2-1-1-1c0 0-1 0-1 1 1 0 1 0 1 1 0 0-1 1-2 1h-1c0 1-3 1-3 0h1v-1l-1 1h-1 1v-1c-1 0-1 1-1 1s0 1 0 0c0 0-1 0-1 1 0-1 0-1 0 0h-1v-1h-1c1 1 0 2-1 2h-1c0 1-1 1-2 1s-1 0-1 1h-1c-1 0-1 0-1 1l-1 1c-1 0-2 0-2 1s0 1-1 2l-2 2h-1c0 1-1 1-2 1h-1c0 2-1 1-3-1 0-1-1-2-1-2s-1 0-1-1c0 0-1 0-1-1-1 0-1-1-1-1l-1-1h-1s0-1-1-1l-1-1c-1 0-1 0-2-1h-1l-1-1c-1 0-1-1-2-1s-2 0-2-1h-2c-1 0-2 0-2-1-1-1-13-1-14 0 0 1-3 1-5 0-1 0-4 0-4 1h-2v1h-2c0 1 0 2-1 2l-1 1h-2v1c1 0 1 0 0 0s-1 0-1 1l-1 1h-1v1h-1v1c-1 0-1 0-1 1v1c-1-1-1-1-1 0s-1 2-1 2h-1c1 1 0 2-1 1v1c1 0 1 0 0 1v1c0 1 0 1-1 1v1c1 0 0 0 0 0-1 0-1 0 0 1 0 1-1 2-1 2 0-1-1 4-1 10 0 9 1 11 1 11s0 1 1 3v2h1v1c1 0 1 0 0 0v1c1 0 1 0 1 1 0 0 0 1 1 1-1 0-1 1 0 1 0 0 1 0 1 1-1 0 0 0 0 0 1 0 1 1 1 2s0 1 1 1c0 0 1 1 0 1h1s1 0 1 1l1 1s0 1 1 1h1c1 0 1 0 0 1h1c1 0 1 0 1 1v1l1-1v1c1-1 1 0 1 0l1 1h2v1h2v1h2c2 0 2 0 3 1 0 1 1 1 4 1h5v-1c0-1 0-2 4-2h4c0-1 1-1 2-1 2 0 2 0 2-1h2s1-1 2-1c0-1 1-1 1-1h1s0-1 1-1 1-1 1-1h1l1-1v-1s3-2 3-3c0 0 1 0 2-1 0-1 1-2 1-2 0-1 0-1 1-1v-1l1-1v-1c0-1 1-1 1-1 1 0 1-1 1-2 0 0 0-1 1-2v-2c0-1 0-2 1-2v-5c0-6 0-6 2-7h1c0-1 1-1 1-1 1 0 2 0 2-1h1c1 0 1-1 2-1l1-1h1c1-1 1-1 2-1 0 0 1 0 1-1h2c1 0 1-1 1-1 1 0 1-1 2-1h1s0-1 1-1h1c0-1 1-1 1-1s1 0 1-1h2l1-1 1-1h2c0-1 0-1 1-1h1c0-1 0-1 1-1s1-1 2-1c1-1 4-1 5 0v2c0 3 1 4 1 4 1-1 1 0 1 0 0 1 0 1 1 1s1 0 0 0c0 1 0 1 1 1s2 1 2 1v1c1 0 1 0 1 1h1c0-2 1 0 1 1h1s1 0 1 1h2c1 0 2 1 2 1h1v1h3c0 1 0 1 7 1 9 0 11 0 10-1 0 0 0-1 1-1h2c1 0 2 0 2-1s6-1 6 0c1 0 1 2 0 3 0 0 0 3 1 3v-1c1 1 1 1 1 2v1c1 0 1 0 1 1v1c1 0 1 0 1 1s0 1 1 1v2s0 1 1 1c0 0 1 0 1 2h1v2c1-1 1 0 1 1s0 1 1 1l1 1v1c1-1 1 0 1 2 1 0 1 0 1 1v1s0 1 1 0v1c0 1 1 1 1 1 1 0 1 0 1 1v1c1 1 1 1 0 0v1c1 0 1 0 1 1 1 0 1 1 1 1 0 1 1 1 1 0 0 0 1 1 1 2v2c1 0 1 1 1 1 0 1 0 1 0 0 1 0 1 1 1 2v1c1 0 2 0 1 1 0 1 0 2 1 2h1v1c1 0 1 0 1 1s0 1 1 2c0 0 1 1 0 2h1s1 0 1 1v1c1 0 1 0 1 1l1 1c0 2 0 2 1 3h1s0 1 1 1v2c1 0 2 1 1 2h1c1-1 1 2 0 2v1h-1v2s-1 0-1 1v1s0 1-1 1c0 0-1 0 0 1 0 0-1 0-1 1-1 0-1 1-1 3v2c-1 0-1 0-1 1 1 0 1 0 0 0v7c0 6 0 6 1 6v2c0 3 0 4 1 4v-1c-1 0-1 0 0 0 1 1 1 1 1 2v1l1 1v1c0 1 0 1 1 1v2s0 1 1 1c1-1 1 0 1 0v1h1v1c1 0 1 0 1 1 1 0 1 0 1 1v1c1-1 2 0 2 0v1c1 0 1 0 1 1h1c1 0 2 1 2 1v1c1-1 2 0 2 0 0 1 0 1 1 1s2 0 2 1h2c1 0 2 0 2 1h7v-1c0-1 1-1 5-1 2 0 3 0 4-1h2c1 0 2-1 2-1 1 0 1-1 2-1h1s0-1 1-1h1c0-1 1-1 1-1s1 0 1-1h1l4-5h1v-1l1-1s1 0 1-1v-1l1-1s0-1 1-1v-1c0-1 0-2 1-2v-2c0-2 1-2 1-2 1-1 1-1 1-7 0-5 0-6-1-6 0-1-1-2-1-3v-2c-1 0-1 0-1-1v-1c-1 0-1-1-1-1s0-1-1-1v-2h-1l-1-1v-1c-1 0-1 0-1-1l-1-1v-1h-1s-1 0-1-1v-1c-1 0-2 0-2-1-1-1-2-1-2-1s-1 0-1-1h-1l-1-1s-1-1-2-1-2 0-2-1h-19c-1 1-1 1-1 0h-2v-1c0-1-1-1-1-2l-1-1s-1-1-1-2c0 0 0-1-1-1 0-1 0-1-1-2v-1l-1-1c0-1-1-1-1-2-1 0-1-1-1-2 0 0 0-1-1-1-1-1-2-4-3-4v-1s0-1-1-1v-1s0-1-1-1c0 0-1 0-1-1v-1c-1 0-1 0-1-1 0 0 0-1-1-1v-1c0-1 0-1-1-1v-1c-1-2-2-3-2-3l-1-1c0-1 0-1-1-1v-1c0-1-1-1-1-2 0 0-1 0-1-1v-1c-1 0-1-1-1-1s0-1-1-1v-1c0-1-1-1-1-1s0-1-1-1v-1c0-1-1-1-1-2v-1c-1 0-1 0-1-1l-1-1v-1h-1c0-1-1-1-1-2v-1c-1 0-1 0-1-1-1 0-1-1-1-1-1-1-1-2-1-2l-1-1c0-1-1-1-1-2v-1c-1 0-1-1-1-1l1-1 1-1 1-1 1-1v-1c1 0 1-1 1-1s1-1 1-2l2-2v-1c1 0 1-1 1-1 0-1 0-2 1-2v-2l1-1v-3c1-2 1-3 1-3 1 0 1-12 0-12 0 0 0-1-1-3v-3s-1-1-1-2v-2c-1 0-1-1-1-1s0-1-1-1v-1c0-1-1-1-1-1 0-1-1-1-1-2v-1c-1 0-1 0-1-1h-1v-1l-1-1c0-1-1-1-1-2-1 0-1 0-1-1l-1-1c0-1 0-1 1-1v-2l1-1s1-1 1-2v-1s1 0 1-1v-1c1 0 1-1 1-1 0-1 0-2 1-2v-1c0-1 0-1 1-1l1-1v-2c1 0 1-1 1-1 0-1 0-1 1-1v-2l1-1s0-1 1-1v-2s1 0 1-1 0-1 1-1v-1c0-1 0-2 1-2v-2l1-1s1-1 1-2v-1c1 0 1-1 1-1 0-1 0-2 1-2v-1c0-1 1-1 1-1s0-1 1-2v-1c1 0 1-1 1-1 0-1 0-2 1-2v-1s0-1 1-1v-1c0-1 1-1 1-2 1 0 1-1 1-1 0-1 0-1 1-1v-2s0-1 1-1v-1l1-1c0-1 1-1 1-2v-1c1 0 1-1 1-1s0-1 1-1v-2c0-1 1-1 2-1 0 1 1 1 2 1h3c0 1 0 1 1 1s1 0 1 2v1c0-1 1-1 2-1h1c0-1 1-2 5-2 2 0 3 0 3-1h2c1 0 2-1 2-1 1 0 1-1 2-1h2c0-1 0-1 1-1l1-1h1c1-1 8-7 8-8s0-1 1-1v-1c0-1 1-2 1-2 1 0 1 0 1-1v-2c1 0 1-1 1-2s0-1 1-2v-7-7c-1 0-1-1-1-2s0-2-1-2v-2l-1-1c0-1-1-1-1-2v-1c-1 0-1-1-1-1h-1v-1s0-1-1-1v-1h-1l-1-1v-1s-1 0-2-1-2-2-3-2l-1-1-1-1h-1c-1-1-2-1-2-1h-1c-1-1-1-1-3-1-1 0-2-1-2-1-1-1-10 0-11 0-2 1-5 0-5-1 0 0 0-1-1-1v1zM5 88s-1 0 0 0c0 1 0 0 0 0 0-1 0-1 0 0zm117 90c1 1 2 1 2-1 0 0 0 1-1 1v-1s-1 0-1 1zm-75 3h1c0 1 0 0 0 0h-1zm26 6c1 1 1 2 1 2v1c1-1 2 0 2 0 0 1 0 1 1 1s1 0 1 1h2c1 0 1 0 2 1 0 1 1 1 1 1 0-1 0-1 0 0v1c0-1 1 0 1 0 1 0 1 1 1 1-1 0-1 0 0 0v1c1-1 1 0 1 1l1 1c0-1 1 0 0 2h1c0-1 0-1 0 0 1 1 1 1 1 2v1c1 0 1 0 1 6 0 5 0 6-1 6v1c1 0 1 0 0 0v1s0 1-1 0c0 0-1 0-1 1h1v1c-1 0-1 0 0 0l-1 1s-1 0 0 0h-1v1h-1v1c1 0 0 1 0 2h-2s-1 0-1 1c1 0 0 0 0 0-1 0-1 0-1 1h1l1 1c0 1 0 1-1 1s-1 1-1 1l-1 1s-1 0-1 1h-3s-1 1-2 1c0 1-1 1-5 1s-4 0-5-1c0 0 0-1-1-1h-3c0-1 0-1-1-1 0 0-1 0-1-1h-1c-1 0-6-5-6-6v-1h-1c0-1 0-1-1-1v-2l-1-1s-1-1-1-2v-2c-1-1-1-9 0-10v-2c0-1 1-3 1-3h1v-2c1 0 1-1 1-1l1-1c0-1 1-1 1-1l1-1c0-1 2-3 3-3v-1h1c1 0 1-1 1-1h1s1-1 2-1 2-1 3-1h2c1-1 1-1 4-1h2l1 1zm-35 3l1 1v-1h-1zm110 8v1c1 0 1-1 1-1h-1z"/><path id="path4" fill="#64698F" d="M244 4c-1 1-1 1-2 1-1-1-2-1-1 0h13l4 2c3 1 5 1 6 2h1c1 0 7 6 9 9 0 1 1 1 1 2 1 0 4 6 4 7v2c1 2 1 14 0 16v2c-1 1-2 4-3 5v2l-5 5c-3 3-6 5-7 5v1c-1 0-1 0-2 1h-1s-1 1-2 1-2 1-3 1c-1 1-2 1-4 1-3 0-3 0-3 1h6c0-1 3-3 4-3 4 0 15-8 17-13 0-1 1-2 1-2 4-7 5-16 3-22 0-1-1-2-1-3v-1s-1-2-1-3c-1-2-2-3-2-3-1-1-1-2-2-2-3-7-15-13-25-14h-5zM27 39h5c10 0 18 1 22 4h1c0 1 1 1 2 2s4 2 5 4l2 2 3 3c0 1 1 2 1 2 0 1 0 1 1 2 2 2 3 9 3 16v6l2 1c0 1 2 2 3 3s2 1 3 2c0 1 1 1 1 1l1 1c2 1 2 2 3 2 0 0 1 0 2 1 0 0 1 1 2 1l3 3c1 0 2 1 2 1s1 1 3 2c1 1 3 3 5 4 3 2 6 4 7 5 0 1 0 1 1 1 0 0 2 1 2 2 0 0 1 0 2 1 2 1 6 4 6 4s1 1 2 1c1 1 3 2 3 3 1 0 2 1 3 2s2 2 3 2c1 1 2 2 3 2 1 1 2 1 2 2h1s2 2 3 2v1c1 0 4 2 4 2 1 1 6-2 6-4v-1 1c0 2-5 5-6 4 0-1-1-1-2-2-1 0-2-1-3-2 0 0-1-1-2-1-2-1-4-3-6-4 0-1-2-2-2-2-1-1-3-2-4-3 0-1-2-2-3-2-1-1-2-1-2-2 0 0-1 0-2-1s-3-2-3-3c-1 0-3-1-4-2-1 0-2-1-2-1-2-2-5-5-9-7 0 0-2-1-2-2-1 0-2-1-3-2-1 0-2-1-3-2s-2-1-2-2c-1 0-2-1-2-1-1-1-2-1-3-2-2-1-4-2-6-4l-2-2c-1 0-2-1-3-2l-2-1 1-2c1-8-2-20-5-22 0 0-1-1-1-2-1-1-8-9-10-10l-1-1c-3-2-13-5-18-5h-9c-2 0-2 0-2 1zm207 33c-2 3-3 6-3 6l-1 1v1c-1 1-1 2-2 3 0 1-1 2-1 2s-1 3-3 7c-2 3-3 6-3 6 0 1-1 1-1 1 0 1-1 2-1 3-1 2-1 3-1 3s-3 6-7 13c-7 16-7 16-5 18 6 6 11 18 10 28v6c-1 1-1 2-1 3 0 2-1 3-1 3v2l-1 1c0 1-1 2-1 3-1 1-2 3-2 3-1 1-2 2-2 3l-3 3c-1 1-1 1 2 6 0 1 0 1 1 1v1l1 1s0 1 1 1v1l1 1c0 1 1 1 1 1v1s0 1 1 1c0 0 0 1 1 1 0 1 0 2 1 3 0 0 1 1 1 2v1c1 0 1 1 1 1 0 1 1 1 1 1s1 2 2 3c2 5 4 7 4 8 1 0 1 1 2 2 0 1 1 3 2 4s2 3 2 3c1 0 1 1 2 2 0 1 1 2 1 2s0 1 1 1c1 1 1 3 3 7 2 2 2 3 4 5 0 1 1 2 1 3s3 2 6 1c4-1 18 0 21 3h1c2 1 3 2 6 5 4 4 6 7 7 10 1 0 1 1 1 2 1 0 1 1 1 2 0 0 0 1 1 2v14c-1 1-1 2-1 3s-1 3-2 4c0 1 0 1-1 2-1 2-5 7-8 9-1 2-7 5-9 5-2 1-5 3-4 3h1c0-1 0-1 1-1 18-7 28-24 22-42 0-2-1-4-2-5 0 0-1-1-1-2-4-5-13-13-17-14h-3c-1-1-14-1-15 0-2 1-5-1-5-2s0-1-1-2-2-3-3-4c-2-5-3-8-4-9-1 0-1-1-2-2 0-1-2-3-2-4-1-1-2-2-3-4 0-1-1-2-2-3-2-3-3-5-4-7-1-1-2-3-2-3-1-1-1-2-2-3-2-4-3-5-3-6-1-1-2-2-2-3-1-1-1-2-2-2v-1c0-1-1-1-1-2-1-1-2-3-3-4l-1-3 1-1c0-1 1-2 2-3s2-2 2-3c1-1 4-7 4-8 0 0 1-1 1-2 0 0 1-2 1-4 0-1 1-3 1-3v-11c-1-1-1-3-1-4-1-5-5-13-9-17-1-1-2-3-2-3 0-1 2-5 8-18 3-5 5-10 6-11 0 0 4-8 4-9s1-1 1-2c0 0 3-6 6-13 7-13 7-13 9-12h2l2 2h1l-1-1-1-1h-1c-1 0-2-1-3-1h-2l-2 5zM62 98c-3 3-5 4-7 5-1 0-2 1-2 1-2 1-4 2-5 2s-2 0-3 1-2 1-4 1h-2c0 1 0 1 3 1 2 0 2 0 2-1h1c1-1 2-1 2-1h1c2 0 9-5 13-8l3-3 1 1c2 0 2 1 3 2v0c-1-4-4-4-6-1zm129 21c0 3-1 5-3 4-6-2-7-2-13-2h-6c0-1 0-1 0 0h-5c-2 0-3 0-2 1 0 1 3 0 5 0 1-1 15 0 16 0 1 1 2 1 3 1s2 1 2 1c1 1 2 0 3-1v-2c1 0 1-1 1-2h-1zM63 175c0 1 1 1-3 1h-2c0 1 3 1 5 0h8c4 0 7 0 7 1h2c1 0 2 1 3 1 1 1 2 1 2 1l1 1c1 0 1 0 2 1 1 0 2 1 2 1s1 1 2 1c1 1 6 5 6 7 1 1 3 1 4 0l1-1c1 0 3-2 3-2v-1 1s-1 0-4 2c-2 2-3 2-4 0 0-1-3-4-5-6-1 0-2-1-2-1-1-1-2-1-3-2-8-4-11-5-17-5h-6c-1-1-2-1-2 0zm2 13c-3 0-5 1-8 3-2 1-7 6-8 9 0 1 0 1-1 2v2c0 1-1 2-1 2-1 1-1 7 0 8l1 1c0 3 3 8 6 11s3 3 5 4c1 1 2 1 3 1 0 1 1 1 1 1 1 0 2 0 3 1h7c1-1 2-1 3-1s2-1 2-1l1-1s1 0 1-1c1 0 2-1 1-2-1 0-2 1-2 2s-2 2-2 2c-1 0-2 0-3 1-7 2-19-3-23-10-4-8-5-12-3-18 1-3 2-5 3-6 0 0 1-1 1-2l5-5c3-1 5-2 6-2s2-1 3-1c2-1 7 0 7 1s0 1 0 0c0-2-4-2-8-1zm75 1c-5 3-13 7-13 7s-1 0-1 1h-2s0 1-1 1c0 0-1 0-1 1h-1c-1 0-1 0-2 1 0 0-1 0-1 1h-1-1s-1 1-3 2c-1 0-3 1-5 2-3 1-3 2-3 7v5c-1 1-1 2-1 3-1 2-1 3-1 3-1 0-1 1-1 1l-2 4c0 1-1 1-1 1v1l-2 2c-1 2-4 5-6 6l-2 2c-1 1-3 2-6 3-4 1-6 2-6 3 0 0 0 1 1 1v-1c0-1 0-1 1-1s2-1 2-1c1 0 1-1 2-1 2 0 5-2 6-2 0-1 1-1 2-2 1 0 6-5 7-7 0 0 1-1 1-2 1 0 1-1 3-5 2-5 4-9 4-14 0-4 0-5 2-5 0 0 8-4 17-9 9-4 17-8 17-8s2 2 2 3v1-1c0-1 0-2-1-2-1-1-1-1-3-1zm47 14c-3 1-5 2-3 2v-1s1 0 3-1h2c1-1 1-1 2 1v1-1c0-3-1-3-4-1z"/></g></g></svg>