<svg xmlns="http://www.w3.org/2000/svg" width="831" height="320" shape-rendering="geometricPrecision" text-rendering="geometricPrecision" image-rendering="optimizeQuality" fill-rule="evenodd" clip-rule="evenodd"><g id="Layer_x0020_1"><g id="svgg"><path id="layer1" fill="#FCFCFC" d="M661 1h-3c0 1 0 1-1 1h-1v1h-1s-1 1-2 0c-1 0-1 0-1 1s-3 5-5 4v3c-1 0-1 0-1 1-1 0-1 1-1 1v1c-1 0-1 0-1 2 1 1 1 1 0 1s-1 1-1 4c0 4 0 4 1 4s1 0 0 2c0 1 0 1 1 1v1c0 1 0 1 1 1v1s0 1 1 1v2h1c0 1 0 1-1 1v1c-1 0-1 1-1 1v1c-1 0-1 0-1 1v1h-1c1 1 0 1 0 1s-1 0 0 1c0 0 0 1-1 1 0 0-1 2-1 3v1c-1 0-1 0-1 1l-1 1v1c-1 0-1 0-1 1 1 0 0 1 0 1-1 0-1 0 0 0 0 1 0 1-1 1v1s0 1-1 1v1c-1 0-1 1-1 1v1c-1 0-1 0-1 1v1h-1c1 1 0 1 0 1-1 0-1 0-1 1 1 0 1 1 0 1 0 0-1 0 0 1h-1v1c0 1 0 1-1 1v1c-1 0-1 1-1 1v1c-1 0-1 0-1 1v1h-1c1 1 1 1 0 1s-2 3-2 5c0 0 0 1-1 1h-1c-1 1-1 1-1 0h-2c-1 0-2 0-2-1h-10c0 1 0 1-1 1h-2s0 1-1 0c-1 0-2 0-2 1-1 0-1 0-1 1h-2c0 1 0 1-1 1-2 0-2 0-2 1 1 1-1 2-3 2s-3-1-3-2 0-1-1 0c-1 0-3-1-3-2-1 0-2 0-2-2-1 0-1-1-2 0 0 0-2-1-1-2 0-1 0-1-1-1-2 0-3 0-3-1 0 0 0-1 0 0-1 0-2-1-3-2 0-1 0-1-1-1-1 1-2 0-2-1 1-1 0-1-1-1s-1 0-1-1h-1v-1h-1c-1 1-2 0-1-2h-1c-2 0-3-1-3-2h-1s-1 0-2-1c0-1-1-1-1-1-1 0-2-1-2-2 0 0 0-1-1 0-1 0-2-1-2-2h-1s-2-1-2-2c0 0 0-1-1 0-1 0-2-1-2-2s0-1-1-1h-2v-1c0-1 0-1-1-1l-1 1v-5-5c-1 0-1-1-1-2v-1c-1 0-1 0-1-1 1-1 1-1 0-1s-1-1 0-1c0-1 0-1-1-2-1 0-1 0-1-1 0-2 0-2-1-2-1 1-4-2-3-3 0-1 0-1-2 0-1 0-1 0-1-1s-1-1-2-1h-1c0-1 0-1-1-1h-1c0-1 0-1-2-1-1 1-1 1-1 0s-1-1-5-1c-3 0-4 0-4 1s0 1-2 0c-1 0-1 0-1 1h-2c-1 0-1 0-1 1h-1c-1 0-1 0-1 1s-1 1-2 1c-1-1-1-1-1 0s-2 4-4 3c-1 0-1 0 0 2 0 1 0 1-1 1-1 1-1 1-1 2v1c-1 0-1 0-1 1v1c-1 0-1 0-1 2 1 1 1 1 0 1s-1 8 0 8 1 1 0 2c0 1 0 1 1 1v2s0 1 1 1v1l1 1c1 0 1 0 1 1v1c2 1 4 3 4 4 1 1 1 1 2 1 0 0 1 0 1 1h1c1 0 1 0 1 1h3c0 1 0 1 1 1h2c0 1 1 1 4 1 4 0 4 0 5-1h1c2 0 2 0 2-1h2c0-1 1-1 1-1h2c0-1 0-1 1-1s1 0 1-1c1-2 5-4 5-3v1s0 1 1 0c1 0 2 1 2 2s1 1 1 1c1-1 2 0 2 1s0 1 1 1c2 0 2 0 2 1l1 1c1-1 2 1 2 2h1c1 0 3 1 3 1v1c1 0 2 0 2 1 1 1 1 1 2 1s2 1 1 2c0 0 0 1 2 0 1 0 1 0 1 1 1 0 1 1 1 1-1 0 0 0 0 0 1 0 2 0 3 2 0 0 0 1 1 0 1 0 2 1 2 2-1 1 0 1 1 1s1 0 2 1c0 0 0 1 1 0 1 0 2 1 1 2 0 1 0 1 1 1 2 0 3 0 3 1s0 1 1 1c0-1 1 0 2 1 0 1 0 1 1 1s2 0 2 2h1c1 0 1 0 1 2v1c-1 0-1 1-1 2 1 1 1 1 0 1s-1 1-1 5 0 5 1 5c0 0 1 0 1 2 0 1-1 1-1 1h-1c0 1 0 1-1 1h-1c0 1 0 1-1 1 0 0-1 1-1 0-1 0-1 0-1 1h-1c-1 0-1 0-1 1h-1-1v1h-1c0 1-1 1-1 1h-1s0 1-1 0c0 0-1 0-1 1h-1c-1 0-4 2-4 2 0 1-1 1-1 1-1-1-1-1-1 0 0 0 0 1-1 0-1 0-1 0-1 1s0 1-1 0v-2-1c-1 0-3-2-3-2s0-1-1 0c-1 0-2-1-2-2h-2c0-1 0-1-1-1h-1c0-1 0-1-1-1 0 1 0 0 0 0 0-1-1-1-2 0-1 0-2 0-2-1h-9c0 1 0 1-2 1-1-1-1-1-1 0 0 0-1 1-1 0-1 0-1 0-1 1h-1s-1 0-1 1h-1c0 1-2 2-3 2-1-1-1 0-1 0l-2 2c-1 0-1 0-1 1 1 1 0 2-1 2v1c0 1 0 1-1 1v2h-1v1c-1 0-1 0-1 2 1 1 0 1 0 1-1 0-1 1-1 5s0 4 1 4c0 0 1 0 0 2 0 1 0 1 1 1v1c0 1 0 1 1 1v1c1 0 1 1 1 1v1c1 0 2 1 1 2 0 1 0 2 1 1 0 0 2 2 2 3h1c1 0 3 0 3 1 0 0 0 1 0 0 1 0 1 0 1 1h1c1 0 1 0 1 1h2c0 1 0 1 1 1h2c0 1 1 1 5 1s4 0 4-1h2c1 0 2 0 2-1h1c0-1 1-1 1-1h1c0-1 0-1 1-1 0 1 1 0 1 0 0-1 1-1 2-1h1c0-1 2-3 2-3 1 1 1 0 1-1s0-2 1-2v-1s0-1 1-1c0-1 0-1 1-1v-1-1c1 0 1 0 1-1v-2c1 0 1 0 1-3v-3c1 0 1 0 0-1 0-1 0-1 1-1 1 1 1 0 1 0s0-1 1-1h2v-1h1c1 0 1 0 1-1h1c2 0 5-1 5-2h1s1 0 1-1h1c0-1 1-1 1-1h1c0-1 0-1 1-1 1 1 1 0 1 0 0-1 0-1 1-1 0 1 0 0 0 0h1c1 0 1 0 1-1h2c0-1 0-1 1-1 0 0 1 0 0 1 0 1 3 3 4 3l2 2c0 1 0 1 1 1 1-1 1-1 1 0h1s1 0 1 1h1v1h3c0 1 0 1 2 1 1-1 1 0 1 0 0 1 1 1 5 1 5 0 5 0 5-1 0 0 1-1 2 0 1 0 2 0 2-1s2 0 2 1 0 1 1 0c1 0 1 0 1 1v1c1 0 2 1 1 2h1v1c0 1 0 1 1 1 1 1 1 1 1 2 1 0 1 1 1 1 0 1 0 1 1 2 0 0 1 0 1 1-1 0 0 0 0 0s1 1 1 2c0 0 0 1 1 1v1c1 0 2 1 2 2-1 0 0 1 0 1 1 0 1 0 1 1-1 0 0 0 0 1 1 0 1 0 1 1 0 0 0 1 1 1v1c0 1 0 2 1 1 1 0 1 0 1 1v1c1 0 2 1 1 1 0 1 0 1 1 1v1s0 1 1 1 1 1 1 1v1c1 0 1 0 1 1s0 1 1 1l1 1c-1 1 0 1 0 1s1 1 1 2h1v2c1 0 1 0 1 1s0 1-1 0c-1 0-1 0-1 2v1c-1 0-1 0-1 1 1 0 0 1 0 1h-1c1 1 1 1 0 1 0 0-1 1 0 2 0 1 0 1-1 1v8c1 0 1 1 1 2-1 1 0 2 0 2 1 0 1 0 0 0 0 1 0 1 1 1 0 0 1 0 0 1 0 0 0 1 1 1v1s0 1 1 1 4 3 5 4c0 1 0 1 1 1h1c0 1 0 1 1 1h1v1h1c0 1 1 1 2 1 1-1 2-1 2 0 0 0 0 1 4 1 3 0 4-1 4-1 0-1 0-1 2 0 1 0 1 0 1-1h1c1 0 1 0 1-1h1c1 0 1 0 1-1h1c1 0 1 0 1-1 1-1 4-4 5-4s1 0 1-1c-1-1-1-1 0-1v-1c0-1 0-1 1-1v-1h1v-2-2c1 0 1 0 1-4 0-3 0-4-1-4v-1-2c-1 0-1 0-1-1-1 0-1-1-1-1v-1s-1 0 0-1c0-2 0-2-1-2-1 1-5-3-4-4 0-1 0-1-2 0-1 0-1 0-1-1h-1c-1 0-1 0-1-1h-1-1c0-1 0-1-1-1-2 1-2 0-2 0 0-1-1-1-4-1-4 0-4 0-4 1h-4c0-1 0-1-1-1 0 0-1-1-1-2v-1c-1 0-1 0-1-1 0 0 0-1 0 0-1 0-2-1-2-2 1 0 1-1 0-1 0 0-1 0 0 0 0-1-1-1-1-2-1 0-1 0-1-1 0 0 0-1-1-1v-1c0-1 0-1-1-1s-1 0-1-1v-1c-1 0-2-1-1-1 0-1 0-1-1-1v-1s0-1-1-1-1-1-1-1v-1c-1 0-1 0-1-1 1-1 0-1 0-1-1 0-2-1-1-1 0-1 0-1-1-1 0 0-1-1-1-2-1 0-1-1-1-1v-1c-1 0-2-1-2-2 1 0 1 0 0 0 0 0-1-1 0-1 0-1 0-1-1-1-1-1-1-1-1-2h-1v-2c0-1 0-1-1-1h-1v-1c-1 0-2-1 0-2 0-1 1-2 0-2 0-1 1-2 2-2s1 0 1-1v-1c1 0 1 0 1-1v-1c1 0 1 0 1-1-1 0 0 0 0 0 1 0 1-1 0-2 0-1 0-1 1-1v-1c0-2 0-2 1-2v-5-5c-1 0-1 0-1-1v-2c-1 0-1 0-1-1 1-1 1-1 0-1 0 0-1 0 0-1 0-1 0-1-1-1v-1h-1v-2c0-1 0-1-1-1s-3-1-2-3c0-1 0-1-1-1 0 1 0 1 0 0v-1h1c-1-1-1-1 0-1v-1c0-1 0-1 1-1v-1h1v-1-1c1 0 3-3 2-4 0-1 1-2 1-2 0-1 0-1 1-1v-1s0-1 1-1v-1h1v-1-1c1 0 1 0 1-1 1 0 1-1 1-1-1-1 0-1 0-1s1 0 0-1c0 0 0-1 1-1 0-1 0-1 1-1v-1c0-1 0-1 1-1v-1c1 0 1-1 1-1v-1c1 0 1 0 1-1-1 0 0-1 0-1s1 0 0 0c0-1 0-1 1-1 0 0 1 0 0-1 0-1 0-1 1-1v-1h1v-1-1c1 0 3-4 3-5-1 0-1-1 0-1s1 1 1 1 0 1 2 0c1 0 1 0 1 1h9c0-1 0-1 2-1 1 1 1 0 1 0 0-1 0-1 1 0 1 0 1 0 1-1h1s1 0 1-1h1s1 0 1-1 3-4 5-4c0 0 1-1 0-1 0-1 0-1 1-1v-1c0-1 0-1 1-1v-1-1c1 0 1 0 1-1v-2c1 0 1 0 1-4 0-3 0-4-1-4v-1c0-2 0-2-1-2v-1-1h-1v-1c-1 0-1-1-1-2 1-1 1-1 0-1-1 1-5-3-5-4 1-1 1-1-1-1-1 1-1 0-1 0h-1c-1 0-1 0-1-1h-1c-1 0-1 0-1-1h-3c0-1-1-1-4-1-4 0-5 0-5 1zM280 109h-1c-2 0-5 3-5 4v1c-1 0-1 1-1 2v2s-1 1-1 2v1h-2l-3 1v2l-1 3h3c2 0 2 0 2 1s0 1-1 1v2c0 1 0 2-1 2v4c-1 0-1 1-1 2v2s-1 0-1 1v4c0 2-1 2-1 2v2c0 1-1 2-1 2-1 1 0 1 4 1 3 0 3 0 3-1 0 0 1 0 1-1v-2c0-1 0-1 1-1v-2c0-1 0-2 1-2v-2-2c1 0 1-1 1-2v-2s1-1 1-2v-1-2c0-2 1-2 1-2v-1c0-1 1-1 3-1 4 0 4 0 4-3v-3h-6 1v-2-2h1c0-1 2-2 3-2h1c0 1 1 1 2 1s1 0 1-1l1-1v-5h-3-6zm-270 2v1c-1 0-1 1-1 2v2c-1 0-1 0-1 1v2s-1 1-1 2v4c0 1-1 2-1 2v2c0 1 0 2-1 2v3c-1 0-1 1-1 2v2c-1 0-1 1-1 2v2s-1 1-1 2v4c0 1-1 2-1 2v3h7v-1c0-1 0-1 1-1v-2c0-1 0-1 1-2v-2-1c1 0 1-1 1-2v-2s1-1 1-2v-2s1-1 1-2v-2-2c0-1 1-1 1-1v-2c0-2 0-2 1-2v-2-2c1 0 1-1 1-2v-2c1 0 1-1 1-2v-2s1-1 1-2v-2h-8v2zm296 0v1c-1 0-1 1-1 2v2h7c7 0 8 0 8 1 0 0-1 0-1 1v2c0 1-1 1-1 1v2c0 1 0 2-1 2v4c-1 0-1 1-1 2v2s-1 1-1 2v2s-1 1-1 2v3c0 2-1 2-1 2v2c0 2 0 2-1 2v5h8v-1-2-2c0-1 1-2 1-2v-2c0-1 0-2 1-2v-2-2c1 0 1-1 1-1v-2c1 0 1-1 1-2v-2s1-1 1-2v-2-2c0-1 1-2 1-2v-2s0-1 1-1v-4h15v-1c0-1 0-2 1-2v-4h-37v2zm41-1v1s-1 1-1 2v3c0 1-1 2-1 2v2c0 1 0 2-1 2v2c0 1 0 2-1 2v4c-1 0-1 1-1 2v2s-1 1-1 2v3c0 1-1 2-1 2v2c0 1 0 2-1 2v2c0 1 0 2-1 2v4h3c4 0 5 0 5-3v-2-2c0-1 1-2 1-2v-1c0-2 0-2 1-2v-2c0-1 0-2 1-2v-1-1c1 0 1-1 1-2 0 0 1-1 1-2 2-4 10-6 12-3v4s-1 1-1 2v3c0 1-1 2-1 2v2c0 1 0 2-1 2v2c0 1 0 2-1 2v4c-1 0-1 0-1 1v1h8v-1-2s1-1 1-2v-2-1c0-1 1-2 1-2v-2c0-1 1-2 1-2v-2c0-1 0-2 1-2v-5-5s-1-1-1-2c-1 0-1-1-2-1l-1-1h-1-8-1c-1 0-1 1-1 1h-1l-1 1c-1 1-2 1-2 0s1-2 1-2v-2c0-1 1-2 1-2v-1c0-1 0-2 1-2v-5h-3c-3 0-4 0-4 1zm35 1s0 1-1 1v5h3c3 0 4-1 4-1v-1s1-1 1-2v-2-1c0-1 0-1-3-1h-4v2zm-317 0l-1 1h-1s0 1-1 1-2 1-2 1v3l-1 1v3h-5v6h3v3c-1 0-1 1-1 2v2s-1 1-1 2v4c0 1-1 1-1 1v2c0 1 0 2-1 2s0 6 1 7c1 2 3 2 7 2h4v-2c0-1 1-2 1-2v-1c0-1-3-2-3-1s-1 1-2 0-1-4 0-4v-2c0-1 0-1 1-1v-2c0-1 0-2 1-2v-2-2c1 0 1-1 1-2v-2s1 0 1-1v-1h6v-2-1-3h-5v-1c0-1 1-2 1-2v-2c0-1 0-2 1-2v-2c0-2-2-3-3-1zm143 0l-1 1h-1l-1 1c-1 0-2 1-2 1v3c0 1-1 2-1 2v1c0 1 0 1-2 1-3 0-3 1-3 4v2h3v4c-1 0-1 1-1 2v1s-1 1-1 2v4c0 1-1 2-1 2v2c0 1 0 2-1 2 0 0 0 4 1 5 0 1 0 1 1 1v1h1c1 0 1 0 1 1h8v-2l1-1c1-1 0-3-1-3h-2c0 1-3 0-3-2l1-1v-2c0-1 0-2 1-2v-1c0-1 0-2 1-2v-2-2c1 0 1-1 1-2v-2l1-1v-2h6v-1-2-3h-2c-3 0-4-1-2-2v-2c0-1 0-2 1-2v-2c0-3-1-4-3-2zm337 10h2c1 0 1 0 1 1h1l1 1c0 1 3 4 4 4s1 1 1 1c0 1 0 1 1 1v2c1 0 1 1 1 4s0 4-1 4v3h-1c0 1 0 2-1 2s-4 3-4 3c0 1-1 2-1 2-1-1-1 0-1 0 0 1 0 1-1 0-1 0-2 0-2 1h-8c0-1 0-1-1-1-1 1-2 1-2 0 0 0 0-1 0 0-1 0-2-1-2-2l-3-3c-1 0-2-1-2-2-1 0-1-1-1-1v-2s-1-1-1-4c0-2 1-4 1-4v-1c0-1 0-1 1-1v-1s1-1 2-1c0 0 3-3 3-4 0 0 1-1 2-1 0-1 1-1 2-1h1c0-1 1-1 4-1s4 0 4 1zm-509 0h-1l-1 1c-1 0-1 0-1 1h-1s-1 0-1 1c-1 0-1 1-2 0h1v-3h-3c-3 0-4 0-4 1v3c0 1-1 2-1 2v2s0 1-1 1v2c0 1 0 2-1 2v4c-1 0-1 1-1 2v2s-1 1-1 2v4c0 1-1 1-1 1v4h7v-2c0-1 1-2 1-2v-2c0-1 0-2 1-2v-2-2c1 0 1 0 1-1v-2l1-1v-2-1l1-1c0-1 0-1 1-1 0 0 0-1 1-1 0-2 1-2 2-2l1-1s2-1 3-1c0 0 1 0 1-1h1c0 1 1 1 1 1 1 0 2 1 2 3v3c-1 0-1 0-1 1v2c-1 0-1 1-1 2v2s-1 1-1 2v4c0 1-1 2-1 2v1c0 1 0 2-1 2v1c0 1 0 1 4 1h3v-1c0-1 1-1 1-1v-2c0-1 0-2 1-2v-2c0-1 0-2 1-2v-2-1c1-1 1-2 1-3v-1s1-1 1-3v-2s1-1 1-2-1-1-1-1v-2c0-1 0-1-1-1 0 0 0-1-1-2 0 0 0-1-1-1h-1s0-1-1-1h-8zm48 0h-1c-1 0-2 1-2 1-1 0-1 0-1 1h-1c-1 0-4 3-4 4l-1 1c-1 0-1 1-1 1v1c-1 0-1 0-1 1v1s-1 0-1 1v14c0 1 1 1 1 2 1 0 1 1 1 1 1 1 1 1 2 1 0 1 1 1 1 2h2s1 0 1 1h10c0-1 0-1 1-1s1 0 2-1h1c1 0 5-5 5-5 0-1 0-1 1-1v-1s0-1 1-1c1-1 0-2-3-2h-2c0-1-2-1-2 0l-1 1v1s-3 3-4 3h-1v1h-1-4c-1 0-4-3-4-4v-1c-1 0-1-1-1-2v-1h25v-5c0-4 0-6-1-6v-1c0-1 0-1-1-1v-1l-2-2-2-2h-1l-1-1h-2-8zm38 0h-1l-1 1h-1l-1 1c-1 1-1 1-1 0v-2h-3c-3 0-4 1-4 3v2c-1 0-1 1-1 2v2s-1 1-1 2v3c0 1-1 2-1 2v2c0 1 0 2-1 2v2c0 1 0 2-1 2v4c-1 0-1 1-1 2v2h7v-1-1c1 0 1-1 1-2v-2s1-1 1-2v-2-2l1-1v-2c0-1 0-1 1-1v-2s0-1 1-1v-1s0-1 1-1l1-1c0-1 2-2 2-2 1 0 1-1 1-1h1s1 0 1-1h1c0 1 1 1 2 1s2 0 2-1v-1s1 0 1-1v-2-2h-1-6zm23 0h-2l-1 1h-1l-1 1c-2 2-2 2-2 0v-2h-7v4c-1 0-1 1-1 2v2s-1 1-1 2v4c0 1-1 2-1 2v2c0 1 0 2-1 2v1c0 2 0 2-1 2v4c-1 0-1 2-1 3v2h4c3 0 3 0 3-1v-1c1 0 1-1 1-2v-1s1-1 1-2v-2-2c0-1 1-2 1-2v-2c0-1 1-1 1-1v-2s0-1 1-1v-1c1 0 1-1 1-1 0-1 3-4 4-4s1 0 1-1h1c1 0 2 0 2-1h1c0 1 0 1 1 1s2 2 2 3v3c0 1-1 2-1 2v2c0 1 0 2-1 2v3c-1 0-1 1-1 2v2c-1 0-1 1-1 2v2s-1 1-1 2v1h8v-2-2c1 0 1 0 1-1v-2s1-1 1-2v-2-2c0-1 1-2 1-2v-2c0-1 1-2 1-2 1 0 0-9-1-10 0 0 0-1-1-1 0-1 0-1-1-1l-1-1h-1-7zm30 0h-1c-1 0-2 1-2 1h-1v1h-1c-1 0-5 4-5 5l-1 1c-1 0-1 1-1 2v1c-1 0-1 0-1 1v1s-1 1-1 3v7c0 1 1 2 1 2v1c0 1 1 2 1 2 1 0 1 1 1 1 0 1 1 2 2 2h1c0 1 1 1 2 1 0 0 1 0 1 1h10c0-1 0-1 1-1 0 0 1 0 2-1h1c1 0 5-5 5-5 0-1 0-1 1-1v-1-1c2-1 1-2-2-2h-2c0-1-2-1-3 0v1s-1 0-1 1c0 0-2 3-3 3h-1c0 1 0 1-1 1h-4c-2 0-5-5-5-7v-1h24v-6-5-1c0-1-1-1-1-1v-1s-4-4-5-4l-1-1h-2-8zm70 0h-2c-2 0-9 6-9 8h-1v1c0 1 0 1-1 1v2c-1 0-1 1-1 2v2s-1 2-1 4c0 1 1 3 1 3v1c0 1 0 2 1 2v1c1 0 1 1 1 1 0 1 2 3 3 3h1c0 1 1 1 1 1 1 0 2 0 2 1h10c0-1 0-1 1-1h1l1-1s1 0 2-1l1-1c1 0 2-1 2-2l1-1 1-1v-1s1 0 1-1v-2l1-1v-2c0-1 1-2 1-2v-3-3s-1-1-1-2v-1l-1-1v-1l-1-1c0-1-1-1-1-1l-1-1c-1-1-1-1-2-1 0 0-1-1-2-1h-1-8zm161 0h-1s-1 1-2 1c0 1-1 1-1 1s-1 0-1 1c-1 0-1 1-1 0-1 0 0 0 0 0 1-2 0-3-3-3s-3 0-3 1-1 1-1 1v2s0 1-1 1v2c0 1 0 2-1 2v4c-1 0-1 1-1 2v2s-1 1-1 2v2s-1 1-1 2v3c0 1-1 2-1 2v4h3c4 0 4 0 4-3 0-1 1-2 1-2v-1c0-1 0-2 1-2v-2-2c1 0 1 0 1-1v-2c1 0 1-1 1-2v-1s1 0 1-1l1-2v-1c0-1 2-2 3-3 1 0 1-1 1-1h2c1 0 2 0 2-1h1c0 1 1 1 1 1 2 0 3 4 2 5-1 0-1 1-1 2v2s-1 1-1 2v4c0 1-1 2-1 2v2c0 1-1 2-1 2v1c0 1 0 2-1 2v1c0 1 0 1 4 1h4v-1-1-2c0-1 1-2 1-2v-2c0-1 0-2 1-2v-2c0-1 0-2 1-2v-2-1c1-1 1-2 1-3v-3s1 0 1-1-1-1-1-1v-2c0-1 0-1-1-1v-2c-1 0-1-1-2-1h-1v-1h-1-8zm30 0h-1c-1 0-1 1-1 1h-1s-1 0-1 1c-1 0-6 4-6 5v1c-1 0-1 1-1 1 0 1-1 1-1 1v1c0 1 0 1-1 1v5c-1 0-1 1-1 2s0 1 1 1v5c1 0 1 0 1 1v1h1c0 1 2 3 4 4s11 2 11 1c0 0 0-1 1-1h1v2s-1 0-1 1c0 2-3 5-5 5h-1-2-1c-2 0-3-1-3-2s-1-2-2-2l-1-1h-5v3c0 1 0 2 1 2v1c0 1 3 3 4 3v1h2c1 0 2 0 2 1h9c0-1 0-1 1-1h1l1-1c1 0 5-4 5-5h1v-1s0-1 1-1v-1-2c1 0 1-1 1-2v-1c1 0 1-1 1-2v-2s1-1 1-2v-2-2c0-1 1-2 1-2v-2c0-1 0-1 1-1v-3s0-1 1-1v-2-2c1 0 1-1 1-2v-2l1-1v-2h-4c-3 0-3 0-3 1s0 1-1 1v1s-1 0-3-2c0 0-1-1-2-1h-1-7zm33 0h-1c-1 0-1 1-2 1 0 1-1 1-1 1-1 0-2 1-2 2v1c0 1-1 1-1 1v6l1 1c0 1 4 5 6 5h1c0 1 0 1 1 1h1s0 1 1 1h1c1 0 4 3 4 4s-2 2-3 3-7 1-7 0c-1 0-3-2-3-3v-1c-1 0-1 0-1-1v-2h-3c-4 1-4 1-4 2v3c0 1 1 2 1 2v1c0 1 2 3 3 3h2v1h1c1 0 1 0 1 1h12c0-1 0-1 1-1h1l1-1c1 0 4-2 4-3v-1c0-1 1-1 1-1v-3-3h-1v-1-1c0-1-2-2-3-2s-1-1-1-1h-1v-1h-2c0-1-1-1-1-1h-1v-1c-2 0-7-3-7-4 0 0 2-2 3-2h1c0-1 1-1 2-1s2 0 2 1h1c1 0 3 3 3 4s3 2 3 1h5v-1c0-1 0-2-1-2v-1c0-1 0-2-1-2 0-1-2-3-2-3-1 0-1 0-2-1 0 0-1-1-2-1h-1-10zm-90 1v1s-1 1-1 2v4c0 1-1 2-1 2v2c0 1 0 2-1 2v1c0 1 0 2-1 2v4c-1 0-1 1-1 2v2s-1 1-1 2v5h7v-2c0-1 0-2 1-2v-2-2c1 0 1 0 1-1v-2s1-1 1-2v-2-2c0-1 1-2 1-2v-2c0-1 0-2 1-2v-1c0-1 0-2 1-2v-6h-3c-3 0-4 0-4 1zm-289 5h1s3 2 3 3 0 1 1 1v3h-8c-7 0-9 0-8-1 1 0 1 0 1-1s3-4 4-4 1 0 1-1h2c0-1 0-1 1-1s2 0 2 1zm91 0c1 0 4 3 4 4v1c1 0 1 0 1 1v1h-8c-8 0-8 0-8-1l1-1c0-1 3-4 4-4 0 0 1 0 1-1h1c0-1 1-1 2-1s2 0 2 1zm70 0c1 0 4 3 4 3v1s1 1 1 4c0 2-1 3-1 3v1c0 1 0 2-1 2 0 1 0 1-1 1v1c0 1-4 5-5 5h-1c0 1-4 1-5 0s-2-1-2-1v-1l-1-1-1-1v-7c1 0 1-1 1-2v-1s1 0 1-1v-1c0-1 5-5 6-5h1c0-1 1-1 2-1s2 0 2 1zm190 0c2 0 3 1 4 3 1 0 1 1 1 1s1 1 1 3-1 3-1 3v2s0 1-1 1v1h-1v1c0 1-4 5-5 5h-1c0 1-1 1-2 1-2 0-5-3-5-5l-1-1v-2-3s1 0 1-1v-2-1h1v-1c0-1 5-5 5-5h1c0-1 1-1 1-1 1 0 2 0 2 1zM59 172H2v146h117v-26H34l-1-20v-19c1 0 18-1 39-1h39v-11c0-11 0-12-1-12v-1s-5-1-38-1H34v-31h82v-1c1 0 1-1 1-12 0-9 0-12-1-12 0 0-26 0-57 1zm188 1s0 1-1 1v1c0 2 0 2-1 2v1c0 1 0 2-1 2v2c-1 0-1 1-1 2v2c-1 0-1 0-1 1 1 1 1 2 0 2s-1 0 0 1c0 2 0 2-1 2 0 0-1 0 0 1 0 1 0 2-1 2v1c0 1 0 2-1 2v3c-1 0-1 0-1 1v2c-1 0-1 0-1 2 1 1 0 1 0 1-1 0-1 0 0 2 0 1 0 1-1 1s-1 1 0 2c0 0 0 1-1 1v1c0 2 0 2-1 2v3c-1 0-1 0-1 2v1c-1 0-1 1-1 2 1 1 0 1 0 1-1 0-1 1-1 2 1 1 0 1 0 1-1 0-1 0 0 1 0 2 0 2-1 2 0 0-1 0 0 2 0 1 0 1-1 1v3c-1 0-1 1-1 2v2c-1 0-1 0-1 1v1c-1 0-1 0-1 2 1 1 1 1 0 1s-1 1 0 2c0 1 0 1-1 1v2c0 1 0 2-1 2v1c0 2 0 2-1 2v2c-1 0-1 1-1 2v1c-1 0-1 1-1 2 1 1 0 2 0 2-1 0-1 0 0 1 0 2 0 2-2 2-1 0-1 0-1-2 1-1 1-1 0-1s-1-1 0-2c0-1 0-2-1-2 0 0-1 0 0-1 0-1 0-1-1-1v-2c0-1 0-1-1-1v-2-1c-1 0-1-1-1-2v-2c-1 0-1 0-1-1 1-1 0-1 0-1-1 0-1-1-1-2 1-1 1-1 0-1s-1 0 0-2c0-1 0-1-1-1v-2c0-1 0-2-1-2v-1-1c-1 0-1-1-1-2v-1c-1 0-1 0-1-2v-1c-1 0-1-1-1-2 1-1 1-2 0-2s-1 0 0-1c0-1 0-1-1-1v-2c0-1 0-1-1-1v-2c0-1 0-1-1-1v-2-1c-1 0-1-1-1-2v-1c-1 0-1-1-1-2 1-1 1-1 0-1s-1 0 0-2c0-1 0-1-1-1 0 0-1-1 0-2 0-1 0-1-1-1v-2c0-1 0-2-1-2v-1-1c-1 0-1 0-1-2v-1c-1 0-1-1-1-2 1-1 1-1 0-1s-1-1 0-2c0-1 0-2-1-2 0 0-1 0 0-1 0-1 0-1-1-1v-2c0-1 0-1-1-1v-2-1c-1 0-1-1-1-2v-2c-1 0-1 0-1-1 1-1 1-1-24-1h-23v146h28v-54c0-52 0-60 1-60v1l1 1v4c1 0 1 0 1 1v2c1 0 1 0 1 1v2c1 0 1 0 1 2-1 1-1 1 0 1s1 0 0 2c0 1 0 1 1 1 0 0 1 1 0 2 0 1 0 1 1 1v2c0 1 0 2 1 2v3c1 0 1 0 1 1v2c1 0 1 0 1 2-1 1-1 1 0 1s1 1 0 2c0 1 0 1 1 1v2c0 1 0 2 1 2v1c0 2 0 2 1 2v2c1 1 1 1 1 2v2c1 0 1 0 1 1v2c1 0 1 0 1 1-1 1-1 2 0 2 0 0 1 1 0 2 0 1 0 1 1 1v2c0 1 0 1 1 1v3c1 0 1 1 1 2v2c1 0 1 0 1 1v2c1 0 1 0 1 1-1 2-1 2 0 2s1 0 0 2c0 1 0 1 1 1 0 0 1 0 0 2 0 1 0 1 1 1v2c0 1 0 2 1 2v3c1 0 1 0 1 1v2c1 0 1 0 1 2-1 1 0 1 0 1 1 0 1 0 1 2-1 1-1 1 0 1 0 0 1 1 0 2 0 1 0 1 1 1v2c0 1 0 2 1 2v3c1 0 1 0 1 1v2c1 0 1 0 1 2l-1 2h16c13 0 15 0 15-1 0 0 0-1 1-1v-1c0-1 0-2 1-2v-1-2c1 0 1 0 1-2v-1c1 0 1 0 1-2-1-1 0-1 0-1 1 0 1-1 1-2-1-1-1-1 0-1s1-1 0-2c0-1 0-2 1-2v-1c0-2 0-2 1-2v-1c0-2 0-2 1-2v-2-1c1 0 1-1 1-2v-1c1 0 1-1 1-2-1-1-1-2 0-2s1 0 0-1c0-2 0-2 1-2v-1c0-2 0-2 1-2v-2c0-1 0-1 1-1v-2-1c1 0 1-1 1-2v-2c1 0 1 0 1-1-1-2-1-2 0-2s1 0 0-1c0-2 0-2 1-2 0 0 1 0 0-2 0-1 0-1 1-1v-2c0-1 0-1 1-1v-2-2c1 0 1 0 1-1v-2c1 0 1 0 1-1-1-2 0-2 0-2 1 0 1 0 1-1-1-1-1-2 0-2 0 0 1-1 0-2 0-1 0-1 1-1v-2c0-1 0-1 1-1v-2c0-1 0-1 1-1v-2-1c1 0 1 0 1-2v-1c1 0 1-1 1-2-1-1-1-1 0-1s1-1 0-2c0-1 0-2 1-2 0 0 1 0 0-1 0-2 0-2 1-2v-1c0-2 0-2 1-2v-2-1c1 0 1 5 1 54v55h30V172h-24l-24-1 1 2zm76 72v73h33V171h-33v74zm50-73c0 1 1 1 1 1 1 0 1 0 1 1s0 1 1 1 1 1 1 1c0 1 0 1 1 1l1 1v1c1 0 2 1 1 2 0 0 0 1 1 1l1 1v1c1 0 1 0 1 1 0 2 0 2 1 1 1 0 1 0 0 1 0 1 0 1 1 2 1 0 1 0 1 1 0 0 0 1 1 1s1 1 1 1v1c1 0 2 1 2 2-1 0-1 0 0 0s2 1 1 2c0 0 0 1 1 1v1c0 1 0 1 1 1s1 0 1 1c-1 2-1 2 1 2 1-1 1-1 1 0-1 1 0 1 0 1 1 1 1 1 1 2v1c1-1 2 0 2 1v1c1 0 2 1 2 2-1 0 0 0 0 0s1 1 1 2c0 0 0 1 1 1v1c0 1 0 1 1 1s1 0 1 1c0 0 0 1 1 1 0 0 1 1 0 1v1c1 0 2 1 2 2 1 0 2 1 2 2v1c1 0 1 1 1 1 0 1 0 1 1 1v2c0 1 0 1 1 1 1-1 1-1 1 0s0 1 1 2c1 0 1 0 1 1-1 0 0 1 0 1 0-1 2 1 1 1 0 1 0 1 1 1 0 0 1 1 1 2 1 0 2 1 2 3 0 1-1 1-1 1v1s0 1-1 1-1 1-1 1c0 1 0 1-1 1-1 1-1 1-1 2 1 1 1 1 0 0-2 0-2 0-1 2 0 1 0 1-1 1s-1 0-1 1v2h-1c0 1-1 2-1 2s-1 0 0 0c0 1-1 2-2 2v1c0 1-1 2-2 2 0 1 0 2-1 2s-1 0 0 1c0 0 0 1-1 1s-1 1-1 1c0 1 0 1-1 1-1 1-1 1-1 2l-1 1c-1 0-1 0-1 1 1 1 1 1 0 1-1-1-2-1-1 1 0 1 0 1-1 1s-1 0-1 1v2h-1c0 1 0 2-1 2 0 0-1 0 0 1 0 0-1 1-2 1v1c0 1-1 2-2 2 1 1-1 2-1 2-1 0-1 0 0 1 0 0 0 1-1 1s-1 1-1 1c0 1 0 1-1 1-1 1-1 1-1 2 1 1 0 1-1 0-1 0-1 0-1 2 1 1 1 1 0 1-1-1-1 0-1 1s0 1-1 1-1 0-1 1v2h-1c0 1 0 2-1 2 0 0-1 0 0 1 0 0-1 1-2 1v1c0 1-1 2-1 2-1 0-1 0-1 1 1 0-1 1-1 1-1 0-1 0 0 1 0 1 0 1-1 1s-1 1-1 1c0 1 0 1-1 1-1 1-1 1-1 2 1 1 0 1-1 1-1-1-1-1-1 0v2h20c18 0 19 0 19-1s0-2 1-2 1 0 1-1c-1 0 0-2 1-2 0-1 0-1 1-1 1-1 1-1 1-2s0-1 1 0c1 0 1 0 1-1-1-1 0-2 0-2s1 0 1-1c-1 0 0-1 1-1v-1c0-1 1-2 1-2h1c0-1 0-1 1-2v-1c0-1 0-1 1-1 1 1 1 1 1-1 0-1 0-1 1-1v-1l1-1c1 0 1-1 1-1-1-1 0-2 1-2v-1l1-1c1 0 1 0 1-1s0-1 1-1c1 1 1 1 1-1-1-1 0-1 0-1s1 0 1-1 0-2 1-2c0-1 1-2 2-2v-1s0-1 1-1c0 0 1-1 0-1 0-1 0-1 1-1 2 0 2 0 1-1 0-1 0-1 1-1v-1c0-1 1-2 1-2h1c0-1 0-1 1-2s1-1 1 0 0 1 1 1 1 1 1 1c-1 1 0 1 0 1 1 1 1 1 1 2h1s1 1 1 2v1c1 0 1 0 1 1s0 1 1 1 1 0 0 1c0 1 0 1 1 1 1 1 1 1 1 2 0 0 0 1 0 0 1 0 2 1 2 2v1c1 0 1 1 1 1l1 1v1c0 2 0 2 1 1 1 0 1 0 1 1s0 1 1 1c1 1 1 1 1 2 1 0 2 1 1 2 0 0 0 1 1 1 0 0 1 1 1 2 1 0 1 0 1 1s0 1 1 1l1 1c-1 1 0 1 0 2 1 0 1 0 1 1h1l1 2v1c1 0 1 0 1 1s0 2 1 1c1 0 1 0 0 1 0 1 0 1 1 2 1 0 1 0 1 1v1c1-1 2 0 2 1v1s1 0 1 1l1 1h18c18 0 19 0 19-1v-2h-1c-1 0-1 0-1-1 0-2 0-2-1-2 0 1-1 0 0-1 0-1 0-1-1-1s-1 0-1-1c0-2 0-2-1-1-1 0-1 0-1-2 1-1 1-1-1-1-1 0-1 0 0-1 0-1 0-2-1-1-1 0-1 0-1-1 0-2 0-2-1-2-1 1-1 1-1-1 0-1 0-1-1-1s-1 0 0-1c0-2 0-2-1-1-1 0-1 0-1-1s0-1-1-2c-1 0-1 0-1-1 0 0 0-1-1-1s-1 0-1-1c1-1 0-1 0-1-1-1-1-1-1-2l-1-1c-1 0-1 0-1-1s0-1-1-1-1-1-1-1c1-1 0-1 0-1-1-1-2-1-1-2l-1-1c-1 0-1 0-1-1 0 0 0-1-1-1s-1-1-1-1c0-1 0-1-1-2 0 0-1 0 0-1l-1-1c-1 0-1-1-1-1 0-1 0-1-1-1-1-1-1-1-1-2l-1-1s-1 0 0-1l-1-1c-1 0-1-1-1-2-1 0-2-1-2-2v-1c-1 1-2-1-1-1 0-1 0-1-1-1 0 0-1-1-1-2 0 0 0-1 0 0-1 0-2-1-2-2v-1c-1 1-2-1-1-2h-1s-2-1-1-2c-1 0-2-1-2-2v-1c-1 0-2-1-1-2h-1s-1-1-1-2v-1h1c-1-1 0-1 0-1 1-1 2-1 1-2 0-1 0-1 1 0 1 0 1 0 1-2v-1s1 0 1-1l1-1c1 0 1-1 0-1 0-1 2-2 2-1v-1c0-1 0-1 1-1 1-1 1-1 1-2v-1h1c0-1 0-2 1-2 0 0 1 0 0-1 0 0 1-2 2-2 0-1 0-1 1-1 1-1 1-1 1-2-1-1 0-1 1 0 1 0 1 0 1-1-1-1-1-2 0-2v-1s1-1 2-1v-1c0-1 1-2 2-1v-1c-1-1 0-1 1-1 0-1 1-1 0-2 0-1 0-1 1-1 1 1 1 1 1-1 0-1 0-1 1-1v-1l1-1s1-1 0-1c0-1 1-1 1-1 1-1 1-1 1-2 0 0 0-1 1 0 1 0 1 0 1-1v-2c1 0 1 0 1-1 0 0 0-1 1-1s1 0 0-1c0 0 1-2 2-2 0-1 0-1 1-2 1 0 1 0 1-1s0-1 1 0c1 0 1 0 1-2-1-1-1-1 0-1v-1s1-1 2-1v-1c0-1 1-2 2-2 0 1 0 0 0 0-1-1 0-1 0-2 1 0 2 0 1-1 0-1 0-1 1-1 0-1 1-2 2-2v-1h-36c0 1-1 1-1 1s-1 0 0 1c0 0 0 1-1 0-2 0-2 0-1 1 0 1 0 2-1 2v1l-1 1c-1 0-1 0-1 1v1c-1 0-1 0-1 1 1 0 0 1-1 1v1c0 1 0 1-1 1 0 1-1 2-1 2-1 0-1 0-1 1v1h-1v-1c-1 0-1 1-1 2 1 1 1 1 0 1v1s0 1-1 1-1 1-1 1v1c-1 0-1 0-1 1 0 0 0 2-1 2 0 0-1 0 0 0 0 1 0 1-1 1 0 0-1 0-1 1 1 0 0 2-1 2v1h-1-1v3h-1c1 1 0 1 0 1-1 1-1 1-1 2 0 0 0 1-1 1 0 1-1 2-1 2-1 0-1 0-1 1v1h-1c0 1 0 2-1 2v1s0 1-1 1-1-1-1-1v-1s-1-1-1-2h-1v-1c0-1 0-1-1-2-1 0-1 0-1-1-1 0-2-2-2-2 1-1 0-1 0-1s-1 0 0-1c0-1 0-1-1-1s-1-1-1-1v-1c-1 0-2-1-2-2-1 0-1-1-1-1 1-1 1-1 0-1l-1-1v-1c-1 0-2-1-2-2v-1h-1c0-1 0-1-1-2 0 0-1 0 0-1 0 0 0-1-1-1 0 0-1-1-1-2-1 0-1 0-1-1 0 0 0-1-1-1s-1-1-1-1v-1c-1 0-1-1-1-2h-1v-1c0-1 0-1-1-1-1-1-1-1-1-2-1 0-1-1-1-2s-1-1-1-1-1 0 0-1l-1-1c-1 0-1-1-1-1 0-1-2-1-19-1h-19v1zm153 72v74h32V172h-15c-8 0-15 0-16-1h-1v73zm244-72h-61v24h45v122h31v-60-62h46v-1c1 0 1-1 1-12 0-9 0-12-1-12 0 0-28 0-61 1zm-136 37c0 1 0 1-5 0-2 0-2 0-2 1h-2c-2 0-2 0-2 1h-3c0 1-1 1-2 1h-1c0 1 0 1-1 1-1-1-1 0-1 0s0 1-1 0c-1 0-1 0-1 1h-1c-1 0-1 0-1 1h-1-1c0 1 0 1-1 1l-1 1s-1 1-1 0h-1c0 1-1 2-2 2 0 1-4 4-5 4s-3 1-2 2c0 1-3 4-4 3-1 0-1 1-1 2 1 1 0 1 0 1s-1 0 0 1c0 0-1 1-2 1v2c-1 0-1 0-1 1v1h-1v1c-1 0-1 0-1 1 1 1 0 1 0 1s-1 0 0 1h-1s-1 1 0 2c0 1 0 1-1 1v1c0 1 0 1-1 1v3c-1 0-1 0-1 2v2c-1 0-1 1 0 3 0 1 0 3-1 3s-1 8 0 8c1 1 1 2 0 6 0 2 0 2 1 2 0 0 1 1 0 2 0 1 0 3 1 3v3c1 0 1 0 1 1v1c1 0 1 1 1 2v1c1 0 1 0 1 1-1 0 0 0 0 0 1 0 1 1 0 2 0 0 0 1 1 1v1h1v2c0 1 0 1 1 1h1c0 1 0 1 1 2 0 0 1 0 0 1 0 0 0 1 1 1s5 4 4 5c0 1 0 1 1 1 1-1 4 2 4 3s0 1 1 0c1 0 1 1 1 1h1c1 0 2 1 2 2h2v1h2c1 0 1 1 1 1h1s1 0 1 1h1c0 1 1 1 2 1h1c0 1 0 1 1 1 1-1 1 0 1 0 0 1 1 1 2 0 1 0 1 0 2 1h1c2 0 2 0 2 1h5c0 1 1 1 8 1 6 0 7 0 7-1h5c0-1 1-1 2-1h3c0-1 0-1 1-1 1 1 1 1 1 0h1c1 0 2 0 2-1 1 0 1 0 1-1h2c0-1 0-1 1-1h1c0-1 0-1 1-1 0 1 0 1 0 0 0 0 1-1 1 0 1 0 1 0 1-1 0 0 1-1 2-1 0 0 1 0 1-1 0 0 1-1 2 0 1 0 1-1 1-1 0-1 8-9 10-9v-1c0-1 0-2 1-2s1-1 1-1c0-1 0-1 1-1 1-1 1-1 1-2-1 0 0 0 0 0v-1c0-1 0-1 1-1v-1s0-1 1-1v-1c1 0 1-1 1-1v-1c1 0 1 0 1-1v-1c1 0 1-1 1-2-1-1-1-1 0-1s1-1 0-2c0-1 0-2 1-2s1-1 0-2c0-1 0-1 1-2v-4-10-4c-1 0-1-1-1-2 1-2 1-3 0-3s-1 0-1-1c1-2 1-2 0-2s-1 0 0-1c0-1 0-1-1-1v-2c0-1 0-1-1-1v-1c-1 0-1-1-1-1v-1c-1 0-1 0-1-2l1-2-2 1c-1 0-1 0-1-1 1 0 1-1 0-1v-1s0-1-1-1c-1-1-2-1-2-2v-1c-2-1-3-2-3-3 0 0 0-1-1-1v-1s0-1 0 0c0 0-1 0-1-1h-1c-1 0-4-2-4-3l-1-1c-1 0-2-1-2-1 0-1-1-1-1-1-1 0-2 0-2-1h-1s-1 0-1-1h-1c0-1-1-1-1-1h-1c0-1 0-1-1-1h-1c0-1 0-1-1 0-1 0-1 0-1-1h-1c-1 0-2 0-2-1h-3c0-1-1-1-2-1h-1c0-1-1-1-3-1-3 1-3 0-3 0 0-1-10-1-11 0zm3 23h4c2-1 2-1 2 0 1 1 1 1 2 1h1c0 1 1 1 2 1h1c0 1 0 1 1 0 0 0 1 0 1 1 1 0 1 0 2 1 0 1 0 1 1 1 1-1 5 4 5 5v1c0-1 2 0 2 1-1 1 0 2 1 2v1c0 1 0 1 1 1v2c1 0 1 0 1 1v2c1 0 1 0 1 2-1 1-1 2 0 2s1 1 1 4c-1 3-1 4 0 6 0 3 0 5-1 5s-1 0 0 2c0 1 0 2-1 2v1c0 2 0 2-1 2v2c-1 0-1 0-1 1v1h-1c1 1-1 2-2 2v1c0 1 0 2-1 2h-1c0 1-3 5-4 4-1 0-1 0-1 1 0 0-1 1-2 1 0 1-1 1-2 1-1-1-1 0-1 0 0 1 0 1-1 1-1-1-1-1-1 0 0 0-13 1-13 0h-1c-1 0-1 0-1-1h-1c-1 0-1 0-1-1h-2c0-1 0-1-1-1 0 0-1 0-1-1s0-1-1-1c-1 1-5-2-4-3 0-1 0-1-1-1-1-1-1-1-1-2s0-2-1-1c-1 0-1 0-1-1v-1c-1 0-1-1 0-1 0-1 0-1-1-1v-1c0-1 0-2-1-2v-1-2c-1 0-1 0-1-3v-4c-1 0-1-1-1-3s0-3 1-3v-3-4c1 0 1 0 1-1v-2c1 0 1 0 1-1v-1s1-1 0-1c0-1 0-1 1-1s1 0 0-1c0-1 1-2 2-2v-1c0-1 1-2 2-1 0 0 1 0 1-1-1 0 1-2 2-2 0 0 0-1 1-1 0-1 1-1 1-2h1c0-1 1-2 2-1 1 0 1-1 1-1s0-1 1 0c1 0 1 0 1-1h4c0-1 1-2 3-1zm0 0z"/><path id="path1" fill="#dcdcdc" d="M1 244v74c1 0 1-9 1-74v-73h57c38 0 57 0 57-1H1v74zm143-73h49c0-1-6-1-25-1s-24 0-24 1zm103-1c-1 1 7 1 23 1s24 0 24-1h-47zm77 0c0 1 5 1 15 1s16 0 16-1h-31zm50 0c-1 1 6 1 18 1s18 0 18-1h-36zm96 0c0 1 6 1 18 1 18 0 18 0 19 1 0 1 1 1 1-1v-1h-38zm57 0c-1 1 5 1 15 1h16v73c0 65 0 74 1 74V170h-32zm180 1h63c40 0 61 0 61-1h-62c-57 0-62 0-62 1zm-463 8h1c0-1-1-1-1-1v1zm-4 15v-1 1zm546 63v-60 60zm-612 5v55c1 0 1-108 0-109v54zm456-53h4c0-1-1-1-2-1s-2 1-2 1zm11 23c-1 0-1 1 1 1h1c0-1-1-1-2-1zm-6 1h2c0-1-1-1-1-1-1 0-1 0-1 1zm-426 1h1v-1s-1 0-1 1zm4 12h1c0-1-1-1-1-1v1zm-179 7c0 1 13 1 38 1s39 0 39-1H34zm662 1v-1 1zm-116 3c0 1 0 1 1 1v-1-1c-1 0-1 0-1 1zm84 2c0 1 1 2 1 2 0-1 1-3 0-3 0-1-1 0-1 1zm33 3c-1 0-1 4 0 4v-2-2zm-86 0c0 1 0 4 1 4v-2c0-2 0-2-1-2zm53 7c0 2 0 2 1 2v-1-2c0-1 0-1-1 1zm-84 1c0 2 1 3 1 1v-3c-1 0-1 0-1 2zm116 4v-1 1zm-115 2c0 1 0 1 1 1v-1h-1zm114 3h1c0-1-1-1-1-1v1zm-183 38s0 1 1 1v-1-1c-1 0-1 0-1 1zm140 2h1v-1c-1 0-1 1-1 1z"/><path id="path2" fill="#ECECEC" d="M649 6c-1 1-1 2-1 2s4-3 4-4c0 0-1 0-3 2zm31-2c0 1 3 4 4 4l-2-2-2-2zM502 29c-1 1-1 1 0 0l1-1s-1 0-1 1zm34 0l1 1c0-1-1-2-1-2-1 0 0 0 0 1zm145 7c-1 2-2 3-1 2s3-2 3-3c1-1 0-1-2 1zM496 50v1c-1 0-1 0 0 0v-1c-1-1-1 0 0 0zm52 3l2 1-1-1h-1zm-50 4l1 1c1 0 0 0 0-1h-1zm57 1h0zm3 1c0 1 1 2 1 2v-1l-1-1zm-58 1c0 1 1 1 1 1s1 0 0 0c0 0 0 1 1 0v-1h-2zm37 0v1c0 1 0 0 0 0h1v-1h-1zm24 2s1 1 1 0c0 0-1-1-2-1l1 1zm-59 0h1v1c1 0 1-1 0-1h-1zm33 0v1c1 0 1 0 1-1 0 0 1 0 0 0 0-1 0-1-1 0zm5 0h1v1c1 0 1-1 0-1h-1zm23 1c0 1 2 2 2 2v-1c-1-1-2-1-2-1zm-58 1l2 1c-1-1-2-1-2-1zm27 1l1-1-1 1zm11-1c0 1 2 2 2 1h-1c0-1-1-1-1-1zm24 2l1 1c1 0 0-1 0-1h-1zm-20 1l1 1v-1c-1-1-1-1-1 0zm-34 0v0h1l1 1c-1-1-1-1-2-1zm11 0v0h1l1 1c-1-1-1-1-2-1zm25 1v1c1-1 1 0 1 0h1c0-1-1-1-2-1zm24 2l1 1v-1c-1-1-1-1-1 0zm68 2v1s0 1 0 0c1 0 1 0 1-1h-1zm-83 2c0 1 1 1 1 1 1 1 1 1 1 0-1-1-2-1-2-1zm21 1h1v-1c-1 0-1 0-1 1zm3 1c0 1 1 2 2 1 0 0-1 0-1-1h-1zm43 0v1s0 1 0 0c1 0 1 0 1-1h-1zm-17 1v1c1 0 1 0 1-1h-1zm12 0v1c1 0 1 0 1-1h-1zm-35 1c0 1 1 1 1 1l-1-2v1zm-21 1h1c0 1 0 1 1 1 0 0 0-1-1-1 0-1 0-1-1 0zm24 1c0 1 1 2 1 1 1 0 0 0 0-1h-1zm-20 1v1c1 0 2 0 1-1-1 0-1-1-1 0zm23 2s1 1 2 0h-1c-1-1-1-1-1 0zm4 0c0 1 0 1 1 0 0 0 1 0 0 0 0-1-1-1-1 0zm-24 0c0 1 1 2 1 2 1 0 0-1 0-1 0-1-1-1-1-1zm3 2s0 1 0 0l1 1c0-1-1-1-1-1zm62 2h1c1 0 1-1 0-1s-1 0-1 1zm-53 4v1c1 1 2 0 1 0 0-1-1-1-1-1zm3 7c-1 0-1 1 0 1 0 0 1 0 1-1h-1zm56 0c0 1 0 1 1 1v-1h-1zm-56 12c0 1 0 1 0 0 0 0-1 0-1 1s1 1 1 0v-1c1 0 1-1 0-1s-1 0 0 1zm-51 3s1 1 1 0c1 0 1 0 0 0h-1zm12 0s0 1 1 1c1-1 0-1-1-1zm-20 3c-1 1 0 2 0 1 1 0 1-1 1-1h-1zm28 0s1 1 2 1l-1-1h-1zm-18 5h1l1-1h-1s-1 0-1 1zm7-1c0 1 0 1 1 1 0-1 0-1-1-1s-1 0 0 0zm93 1v1l1-1c0-1 0-1-1 0zm-102 0v1h1c0-1 0-1-1-1zm11 1c1 0 2-1 1-1 0 0-1 0-1 1zm45 0h1v-1l-1 1zm-70 0c-1 1 0 1 1 0 0-1 0-1-1 0zm74 4h1c1 1 1 1 1 0-1-1-2-1-2 0zm-78 4c0 1 1 1 1 1v-2c-1 0-1 1-1 1zm9 0s0 1 1 1v-1c0-1 0-1-1 0zm113 0c0 1 1 1 1 1 1 1 1 1 0 0 0-1-1-1-1-1zm-114 3c1 0 1-1 1-1-1 0-1 0-1 1zm31-1l1 1c0-1 0-1-1-1zm-31 6c0 1 0 1 1 1 0-1 0-1-1-1 0-1 0-1 0 0zm32 0l-1 1c1 0 1 0 1-1v-1 1zm72 0s1 1 2 1c0 0 0-1-1-1s-1-1-1 0zm-102 2c-1 0-1 1-1 1h1v-1zm-10 1c0 1 0 1 1 1v-1h-1zm48 0s0 1 1 1v-1c0-1-1-1-1 0zm83 4s1 0 1 1c1 0 1 0 0-1 0-1-1-1-1 0zm-111 5h2-1c0-1-1-1-1 0zm8 0h-1c-1 0-1 0 0 0h1v-1 1zm93 2s1 1 2 1l-1-1h-1zm17 3l1 1c1 1 1 0 0-1h-1zm-120 3s0 1 1 1v-1h-1zm12 0c-1 0 0 1 1 1v-1h-1zm98 4c0 1 1 2 1 2 1 0 1-1 0-1l-1-1zm39 8s3 3 4 3l-2-2c-2-2-2-2-2-1zm-568 0c0 1-19 1-57 1H2h115c0-1 0-1-1-1zm207 1h16c15 0 18 0 17-1h-1c0 1-31 1-31 0h-1v1zm87-1c0 1-7 1-18 1h-19 18c18 0 20 0 20-1h-1zm421 0c0 1-21 1-61 1h-63v13c0 8 1 12 1 12v-12l1-13h123c0-1 0-1-1-1zm-687 1v147c1-1 1-16 1-74v-73h47-48zm114 0h12-12zm219 0h11-11zm57 0h8-8zm-288 1v0c0-1 0-1 0 0zm165 0s1 0 1 1c1 0 1 0 0-1 0 0-1-1-1 0zm-166 4h1c0-1-1-1-1-1v1zm132 1c0 1 1 2 1 2 1 0 0-1 0-1l-1-1zm89 1c-1 1-1 1 0 0h1c0-1-1-1-1 0zm-51 0l1 1c1 1 1 0 0 0 0-1-1-1-1-1zm-221 1v1s1 1 1 0 0-1-1-1zm184 1s1 0 1 1c1 0 1 0 1-1-1 0-2-1-2 0zm-183 2c-1 1 0 2 0 1 1 0 1-1 0-1zm225 3c1 1 2 1 1 0s-1-1-1 0zm-178 2l-1 1c1 1 1 0 1-1zm254 2l-1 1c1 0 1 0 1-1 1 0 1-1 0 0zm-256 2l1 1v-1-1s-1 0-1 1zm-42 1v-1 1zm188-1l1 1c1 0 1 0 0-1h-1zm38 0s0 1 1 1 1 0 0-1h-1zm32 1c0 1 0 1 1 1v-1c0-1 0 0-1 0zm329 65v61-61c1-47 1-60 1-60v-1c-1 0-1 3-1 61zm-297-57v1h1c1-1 0-2-1-1zm164 0l3 3c2 1 1 0-1-2-1-1-3-2-2-1zm33 1c-1 2-2 3-1 2s3-2 3-3l-2 1zm-448 1v1c1 1 1 0 1-1h-1zm250 1c-1 0-1 1 0 0l1-1s-1 0-1 1zm-286 1h1c0-1 0-1-1-1v1zm194 1s1 1 2 1c0 0 0-1-1-1 0 0-1-1-1 0zm-159 1s0 1 1 1v-1-1c-1 0-1 1-1 1zm211 1c-1 0-1 1 0 0 1 0 1-1 1-1l-1 1zm-273 55v56-56-54c1 0 1 0 1-1 0 0 0-1-1-1v56zm455-53s2 1 2 0c1 0 0 0 0 0h-1c0-1 0-1-1 0zm16 0c0 1 1 1 2 0 1 0 1 0 0 0 0-1-1-1-1 0h-1c0-1 0-1 0 0zm-442 0v1h-1l1 1s1-1 0-2zm422 1s2 1 2 0-1-1-1 0h-1c0-1 0-1 0 0zm26 0h2c0-1-1-1-1-1-1 0-1 0-1 1zm-476 0v1h1c0-1-1-1-1-1zm446 0v1c1 0 1 0 1-1h-1zm33 0c1 1 2 1 2 0-1 1-1 1-1 0h-1zm-36 1c0 1 1 1 1 0h-1zm-414 4c0 1 0 1 1 1v-1h-1zm402 1c-1 1-1 1 0 1l1-1c0-1 0-1-1 0zm-373 2v1l1-1c-1-1-1-1-1 0zm439-1c0 1 1 2 1 2 1 0 1-1 0-1l-1-1zm-467 1c0 1 0 2 1 2v-1c0-1-1-1-1-1zm199 0l2 2s0-1-1-2h-1zm71 2l-1 1h1c1-1 1-2 0-1zm125 1c-2 1-1 1 0 0s2-1 1-1c0 0-1 0-1 1zm75-1s2 2 3 2l-2-2h-1zm-443 1v1c1 0 1 0 1-1 0 0 0-1-1-1v1zm176 2l1 1c1 0 0 0 0-1h-1zm186 3l-1 1c1 0 2-1 2-2l-1 1zm88 0v1h1v1c1-1 1-1 0-1l-1-1zm-474 1v0zm476 1l1 1c1 0 1 0 0-1s-1-1-1 0zm-476 3h1v-1s-1 0-1 1zm426 2c1-1 1-1 2-1 0 0 1 0 1 1 1 0 0-1-2-1-1 0-1 0-1 1zm6-1c-1 0-1 1 0 1s1-1 1-1h1-1-1zm-411 1v1s1 0 0-1c0-1 0-1 0 0zm402 0c-1 0 0 1 1 1v-1h-1zm-2 1c0 1 0 1 1 0h-1c-1 0-1 0 0 0zm-401 2v1s1 0 1-1l-1-1v1zm423 0l1 1c1 0 0 0 0-1 0 0-1-1-1 0zm-234 0c0 1 1 2 2 2 0 0 0-1-1-1 0-1-1-1-1-1zm237 2c-1 0 0 0 0 0s3 3 4 3l-1-1-1-1c0-1-2-2-2-1zm36 0h1c0 1 0 0 0 0v-1s-1 0-1 1zm-479 1v1c1 1 1 0 1 0 0-1 0-1-1-1zm16 0c0 1 0 1 1 1 0 0 0-1-1-1zm234 1v1s1 0 1-1c1 0 1-1-1 0zm-249 3h1c0-1 0-1-1-1v1zm206 0c0 1 0 1 1 1 0-1 1-1 1-1 0-1-1 0-2 0zm44 1c0 1 1 2 1 2v-1l-1-1zm1 3l2 1-1-1s-1-1-1 0zm-238 1s-1 1 0 1v-1c0-1 0-1 0 0zm470 1v-1 1zm-481 2c0 1 1 1 1 1 0 1 0 0 0 0v-1h-1zm10 0c0 1 0 1 1 1l-1-1zm357 1s0 1 1 0v-1c0-1-1-1-1 1zm32 0v1c1 0 1 0 1-1s0-1-1 0zm82 1c0 1 0 2 1 2v-1c-1 0-1-1 0-1 0-1 0-1-1 0zm-661 0v1c0-1 9-1 39-1h38-77zm217 0c0 1 0 2 1 2v-2h-1zm413 0v1c0-1 0 0 0 0s0 1 0 0c1 0 1-1 0-1zm-449 1c0 1 0 1 1 1v-1h-1zm8 0v1c1 0 1-1 0-1zm357 1s0 1 1 1v1c1-2 0-3-1-2zm32 0c0 1 0 1 1 1-1-1-1-1 0-1h-1zm-203 2c-1 1 0 1 1 0v-1l-1 1zm-193 0c0 1 0 2 1 1v-1h-1zm191 2v1l2-1c0-1-1 0-2 0zm258 1v1c-1 0-1 1 0 1 0 0 1-1 1-2-1-1-1-1-1 0zm31 1c0 1 0 8 1 7v-2c-1 0-1-4 0-4v-1c0-1 0-1-1 0zm-476 2v1c1 0 1 0 1-1s0-1-1 0zm184 1c-1 1 0 1 0 1l1-1c0-1 0-1-1 0zm71 0s1 0 1 1c1 0 1 0 0-1 0-1-1-1-1 0zm-256 3c2 0 2-1 0-1v1zm29-1v1c1 0 1-1 1-1h-1zm154 0c0 1 0 1 1 1l1-1h-2zm75 0s0 1 1 1 1 0 0-1h-1zm188 0c-1 1-1 1 0 1v2c1 0 1 0 1-1s-1-3-1-2zm-186 2v1c1 1 1 1 1 0l-1-1zm-232 1c0 1 0 2 1 2v-2h-1zm334 2v1c-1 0-1 0 0 1v-1c0-1 1-2 0-2v1zm-101 0s1 0 1 1c1 0 1 0 0-1 0 0-1-1-1 0zm-38 1s1 1 2 1c0 0 0-1-1-1 0 0-1-1-1 0zm-196 0c0 1 0 2 1 2v-2h-1zm366 1s0 1 1 1v-1c0-1-1-1-1 0zm-130 0s0 1 1 1c1 1 1 0 0 0l-1-1zm213 1c0 2 1 2 1 2v-1c-1 0-1-2 0-2-1 0-1 0-1 1zm-251 0s1 1 2 1l-1-1h-1zm220 0c1 1 1 1 0 1s-1 0 0 0h1c0-1-1-1-1-1-1 0-1 0 0 0zm-419 2l1 1v-1c0-1 0-1-1 0zm239 0c1 1 1 1 1 0-1-1-1-1-1 0zm97 0c1 0 1 1 1 1h-1c1 1 1 1 1 0 1-1 0-2 0-2-1 0-1 1-1 1zm32 0v1c1 0 1-1 0-1 0-1 0 0 0 0zm-179 2h-1c0 1 1 0 1 0 1-1 1-1 0 0zm229-1v1c0 1 1 0 1 0 0-1-1-1-1-1zm-178 1l1 1c1 0 1 0 0-1h-1zm-240 1v1l1-1h-1zm148 1c-1 1 0 1 1 0 0-1 0-1-1 0zm189 1v1c1 0 1-1 1-1s0-1-1-1v1zm33 0v1s1 0 1-1l-1-1v1zm79 0c-1 1-1 1 0 1 0 1 1 0 1 0 0-1-1-1-1-1zm-450 2s1 0 1-1h-1v1zm148-1c-1 1-1 2 0 1 0-1 1-1 1-1h-1zm-149 4h1c0-1 0-1-1-1v1zm374-1l1 1c1 1 1 0 0 0 0-1-1-1-1-1zm-33 1v0zm-196 1c-1 1 0 1 1 1v-1c0-1 0 0-1 0zm231 1l2 2c1-1-1-3-2-3v1zm-377 1s0 1 1 1v-1-1c-1 0-1 1-1 1zm184 0s-1 0 0 1l1-1c0-1 0-1-1 0zm228 2c-2 1-2 1-1 1s1 0 1-1h1v-1c0-1 0 0-1 1zm-412 0c-1 0-1 1-1 1 0 1 0 1 1 1v-1-1zm214 1l1 1c1 0 0-1 0-1-1 0-1-1-1 0zm1 2s1 0 1 1c1 1 1 0 1-1h-2zm-216 0c0 1-1 1-1 1 0 1 1 1 1 1v-1-1zm389 1c0 1 1 1 1 0 1 0 0 0 0 0h-1zm58 0c-1 0-1 1-1 1h1c1-1 1-2 0-1zm-55 1c-1 0 1 1 1 0 1 0 1-1 1-1-1 0-1 1-1 1h-1c0-1 0-1 0 0zm9 0c2 1 2 1 2 0s0-1 0 0h-1c0-1-1-1-1 0zm44 2s-1 0 0 0h1c0-1 0-1-1 0zm-446 0v0s0-1 0 0zm350 0l1 1c1 0 0 0-1-1zm-171 2c-1 0-1 1-1 1s1 0 1-1c1-1 1-1 0 0zm263 2l-1 1c1 0 3-2 3-2s-1 0-2 1zm-89 0l2 2c1 0 1 0 1 1-1 0-1 0 0 0v-1c-2-2-3-3-3-2zm-176 0c-1 1-1 2 0 1l1-1c0-1-1 0-1 0zm-40 1c-1 1 0 1 1 1v-1c0-1 0 0-1 0zm86 0s1 1 2 1c0 0 0-1-1-1h-1zm-87 3c-1 0-1 1 0 0l1-1s-1 0-1 1zm89-1c0 1 1 2 2 1h-1c0-1-1-1-1-1zm212 2c-2 1-2 2-1 2l4-4s-1 0-3 2zm-79-1c0 1 1 2 2 2l-1-1c0-1-1-1-1-1zm-397 2v2c1 0 1-1 1-2h-1zm171 2c-1 1 0 1 1 1v-1h-1zm300 0c0 1 0 2 1 1 0-1 1-1 1-1 0-1-1 0-2 0zm-261 1l-1 1h1c1-1 1-2 0-1zm-209 1v1c1 0 1-1 1-2-1 0-1 0-1 1zm207 1c-1 1 0 2 1 1v-1h-1zm-206 2c-1 0 0 1 0 1s1-1 0-1zm32 2c-1 1-1 1 0 1v-1-1 1zm386 1c-1 0 0 0 0 0h1c0-1-1-1-1 0zm3 0v1c1-1 1-1 1 0h1c0-1-1-1-2-1zm5 1c-1 0-1 1 0 1 0-1 1-1 1-1v1c1 0 1-1 0-1h-1zm18 1c1-1 1-1 1 0h1v-1c-1 0-2 0-2 1zm0 0z"/><path id="path3" fill="#F4F4F4" d="M650 6l-2 2c1 0 4-3 4-3 0-1-1 0-2 1zm29-1s4 4 4 3c0 0 0-1-2-2-1-1-2-2-2-1zM510 24c1 1 2 0 2 0h-1c-1-1-1-1-1 0zm18 0h-1s1 1 1 0c1 0 1 0 1-1-1 0-1 0-1 1zm-20 0c0 1 0 1 1 1 0-1 0-1-1-1zm21 1h1v-1s-1 0-1 1zm-26 2v1s-1 2-2 2h-1 1c0 1 1 0 2-1s1-1 1-2h-1zm32 1c-1 0 2 3 3 2h-1l-2-2c0-1 0-1 0 0zm148 6h-1c0 1 2 0 2 0h-1zm-186 1s0 1 1 1v-1s0-1-1 0zm44 0c-1 0-1 1 0 1l1-1s-1-1-1 0zm140 1c-1 1-1 1 0 0 0 0 1 0 1-1l-1 1zm-185 0c0 1 0 1 1 1v1c1 0 1-1 0-2h-1zm46 0l-1 1c0 1 0 1 1 1 0 0 1 0 0 0v-1c1 0 1 0 0-1zm137 2v1c1 0 1-2 1-2-1 0-1 0-1 1zm-35 1s0 1 1 1v-1s0-1-1 0zm0 1c-1 1-1 1 0 1h1c0-1-1-1-1-1zm12 1c0 1 1 1 2 1 0-1 0-2-1-2l-1 1zm-13 1c-1 0 0 1 0 1 1 0 1 0 1-1h-1zm-1 3c0 1 0 1-1 1 0 0-1 0 0 1 0 0-1 0-1 1-1 0-1 1-1 1 1 0 0 0 0 0-1 2-2 5-2 5v1c1 0 1 0 1-1v-1h1c0-1 0-1-1 0v-1h1l1-1h-1c0-1 1-1 1-1v-1l1-1c0-1 0-1 1-1v-1-1zm12 1c0 1 0 1 1 1v-1h-1zm-1 2h1-1zm-108 3v1h1c1 0 1 0 0 0v-1s-1-1-1 0zm3 2c0 1 1 2 1 2 1 0 1 0 0-1l-1-1v-1 1zm-51 0c-1 0-1 1-1 1h1v-1-1c-1 0-1 0 0 1zm54 2c0 1 2 2 2 2v-1h-1c0-1 0-1-1-1 0-1 0-1 0 0zm-54 0s0 1 1 1v-1h-1zm1 1c0 1 0 1 1 1l1 1c0-1-1-1-1-1-1 0-1-1-1-1zm56 1v1s1 0 1-1h-1zm3 2c0 1 1 2 2 2l-1-1v-1h-1c0-1 0 0 0 0zm-57 0s0 1 1 1c0 0 1 0 0 1l2 1 1 1c0 1 1 1 0 0 0-2-4-5-4-4zm36 2l-2 2c0 1 0 1 1 0 0-1 0-1 1-1l1-1c0-1 1-1 1 0h1c1 0 1 0 0 0v-1c0-1-2 0-3 1zm24 1c1 1 2 1 2 1h1c0 1 1 2 2 2l-1-1s0-1-1-1l-1-1s-1 0-2-1v1zm-20 0h1l1 1c0 1 1 1 0 0 0-1-1-2-2-1zm-34 2l1 1v-1l-1-1v1zm26 0l-1 1s1 0 1-1c1 0 1-1 1-1-1 0-1 1-1 1zm12 0l1 1c1 0-1-2-1-2-1 0 0 1 0 1zm-36 1c0 1 0 1 1 1 0-1 0-1-1-1zm21 1h1v-1s-1 0-1 1zm115 0s1 0 0 0v1h-1c1 0 1 0 1 1h-1c-1 0-1 1-1 1v1c-1 0-1 0-1 1l-1 1v1l1-1c1 0 1-1 1-1l1-1v-1c2-2 3-4 1-4v1zm-78 0c0 1 2 2 2 1l-1-1h-1zm-56 0v1h1c0-1 0-1 0 0h1c0-1-1-1-2-1zm17 1c0-1 0-1 1 0h1l-1-1s-1 0-1 1zm20 0c1 1 2 1 1 0 0-1 0-1-1-1v1zm22 0v1h1c0 1 0 1 1 1-1 0-1-1-1-1 0-1-1-1-1-1zm-20 1h1l1 1c0 1 0 1 0 0s-1-2-2-1zm23 2c0 1 1 1 2 1l-1-1c0-1 0-1-1-1v1zm56 0s0 1 1 1v-1s0-1-1 0zm-53 2l2 2c1-1 0-1 0-1-1 0-1-1-1-1v-1c-1 0-1 0-1 1zm53-1c-1 1-1 1 0 1h1c0-1-1-1-1-1zm-73 1s1 1 2 1c-1 0 0 1 0 1 1 0 1 0 0 0v-1c0-1-1-2-2-1zm23 2s0 1 1 1v-1c-1-1-1 0-1 0zm-19 0c1 1 1 1 1 2 1 1 1-1 0-2h-1c-1 0-1 0 0 0zm22 2l2 2v-1c-1 0-1-1-1-1v-1c-1 0-1 0-1 1zm-19 1s1 0 1 1h1l-1-1s0-1-1-1v1zm63 0v1c1 0 1 0 1-1s0-1-1 0zm13 0c0 1 0 1 1 1v-1h-1zm-53 1c0 2 1 2 2 2 0 1 1 2 2 2v-1c-1 0-1-1-1-1l-1-1c-1 0-2 0-2-1l-1-1 1 1zm19 0s1 0 1 1c1 0 1 0 1-1s0-1 0 0h-1c0-1-1-1-1 0zm19 0c0 1 0 1 1 0 0-1 0 0 0 0h-1c0-1 0-1 0 0zm-58 0c-1 1 0 1 0 1s1 0 1 1 1 1 1 0c-1-2-2-3-2-2zm72 1s0 1 1 1v-1h-1zm-69 2c1 0 1 1 1 1l1 1s0-2-1-2c0-1-1-1-1-1v1zm29 0v1l-1 1c0 1 1 0 2-1 0-2 0-2-1-1zm-6 2l1 1c1 0 1 0 1-1h-1-1c0-1 0-1 0 0zm-19 0c1 2 1 2 1 1l-1-1zm23 0v1c1 0 1 0 1-1h-1zm-21 2c1 0 1 1 1 1h1c0-1-2-2-2-1zm62 1v1c1 1 1 1 1 0-1-1-1-2-1-1zm-58 2s1 0 1 1h1c0 1 1 1 1 1 0-1 0-1 0 0v1c1 0 1 0 1-1-1-1-2-2-2-1-1 0-1-1-1-1s0-1-1-1v1zm6 3v1c0 1 1 1 1 1s0-1-1-2h-1 1zm56 2c0 1 1 1 1 1 1 0 1-1 0-1h-1zm-53 0v1c-1 1-1 1 0 1v-2c-1 0-1 0 0 0zm55 1c-1 1-1 2 0 2 0 0 1 0 0 0v-1h1l-1-1zm-56 17v1c-1 0-1 0 0 0 0 0 1 0 1-1h-1zm55 2c0 1 1 1 1 0 1 0 0 0 0 0v-1c1 0 0 0 0 0-1 0-1 0-1 1zm-62 1c-1 1-3 1-3 2h-1-1v1h-1l-1 1h-1c-1 0-1 1-1 1 1 0 1 0 0 0h1c0-1 1-1 1-1 1 1 1 0 1 0h1s1 0 1-1h1v-1h1c1-1 1 0 1 0-1 0-1 0 0 0 0-1 0-1 1-1h1s0-1 1-1v1l1-1c1 0 1 0 1-1h-1s-1 0-3 1zm-49 0c0 1 0 1 1 1h1-1c0-1-1-1-1-1zm22 1h-1 1c1 0 2 0 1-1 0 0-1 0-1 1zm-25 2v1c1 0 2-1 1-2l-1 1zm28-1c0 1 1 2 1 2v-1l-1-1zm-31 3c-1 1-2 1-1 1l2-2c1-1 0-1-1 1zm34-1l2 2c1 0 0 0-1-1-1-2-2-2-1-1zm81 0v1c1 0 1-1 0-1zm-1 2c-1 0-2 1-2 2 0 0 1 0 1-1h1l1-1h-1zm-73 1c-1 0 0 1 0 1l1-1s-1-1-1 0zm-31 1h1v-1c1 0 1 0 0 0 0 0-1 0-1 1zm13-1v1h1c0-1 0-1-1-1zm-26 1v1c1 0 2-1 2-1h-2zm40 0s0 1 1 1v-1h-1c0-1 0-1 0 0zm2 0v1c1 0 1-1 1-1 0-1-1-1-1 0zm-31 0v2c0-1 1-1 1-1 1 0 1-1 1-1h-2zm17 0c-1 0 0 1 0 1s1 0 1 1v-1c0-1-1-2-1-1zm86 2c-1 1 0 2 1 2s1 0 0-1v-1h-1zm-51 1h1v-1c-1 0-1 0-1 1zm-65 0v1c1 0 1 0 0 0 0 0 0 1 1 1v-1c0-1 0-2-1-1zm63 1h1v-1s-1 0-1 1zm14 0c1 0 1 0 1 1l1 1v-1c-1-1-1-2-2-2s0 0 0 1zm-15 0v1s1 0 1-1h-1zm-54 1v1c1 1 1 0 1 0 0-1 0-1 1-1h-2zm27 0v1c1 0 1 1 1 0 1 0 0-1-1-1s-1 0 0 0zm25 0v1c1 0 1-1 1-1h-1zm20 1c0 1 1 1 1 0 0 0 0-1-1-1v1zm-73 2s1-1 1 0v-1c-1 0-1 0-1 1zm29-1c0 1 0 1 1 1v-1h-1zm18 0c0 1 0 1-1 1h-1v1h-1-1c-1 0-1 1-1 1s0 1-1 1v-1l-1 1c0 1 1 1 3 0v-1c0 1 1 0 1 0 1 0 1-1 1 0l1-1s1-1 1 0c0 0 0-1 1-1v-1c1 0 1 0 0 0h-1zm31 1s0 1 1 1v-1s1 0 1 1v-1s-1-1-2 0zm19 0v1c0-1 0-1 1-1v1c1 0 1-1 0-1h-1zm16 1l1 1h1l-1-1c-1-1-1-1-1 0zm1 2l1 1c1 0 1-1 0-1h-1zm-13 0v1c1 1 2 3 2 2v-1h-1c1-1 0-2-1-2s-1 0 0 0zm14 2s1 0 1 1c1 0 2 0 1-1s-1-1-2 0zm-12 2c1 1 2 2 2 1l-1-1h-1zm14 0c0 1 0 1 1 1 0 1 1 2 1 2h1c-1 0-1-1-1-1 0-1-2-2-2-2zm-117 4s0 1 1 1v-1h-1zm29 0s0 1 1 1v-1s0-1-1 0zm90 0l1 1c2 0 2 0 1-1h-1c0-1-1 0-1 0zm-13 1h1v1c1 0 1 0 1-1h-1l-1-1v1zm-105 0c0 1 1 2 2 2-1 0-1-1-1-1 0-1-1-1-1-1zm27 1v1c-1 0-1 0 0 0s2-1 1-2l-1 1zm-36 1c0 1 1 1 1 0v-1c-1 0-1 1-1 1zm46 0c1 0 1-1 1-1-1 0-1 1-1 1zm70 0v1l1 1s1 0 1 1v-1c-1 0-1-1-1-1 0-1-1-2-1-2-1 0-1 0 0 1zm-115 1c1 0 1 1 0 1 0 0 0 1 1 1h1c0 1 0 1 0 0 0 0 0-1-1-1 0-1 0-1-1-1zm44 0c0 1 0 1 0 0 1 0 1 1 1 1h-1c-1 0-1 1-1 1 0 1 0 1 1 0h1c0-1 1-2 0-2h-1zm85 0s0 1 1 1h1l-2-1zm-116 2c0 1 1 2 2 2 0-1 0-1-1-1l-1-1zm18 0s0 1-1 1-1 0 0 1c0 0 2-1 1-2zm86 0v2c2 2 3 3 3 1h-1l-1-1c1 0 1 0 0-1 0-1-1-1-1-1zm14 1c1 0 1 0 1 1-1 0 0 1 1 1s1 0 0 0v-1c0-1-2-2-2-1zm-129 0c0 1 0 1 1 1v1c1-1 0-2-1-2zm40 1v1l1-1v-1c1 0 1 0 0 0 0 0-1 0-1 1zm-27 0l1 1v-1c0-1-1 0-1 0zm13 0s0 1 1 1v-1c0-1-1-1-1 0zm-23 3c1 2 2 3 1 1l-2-2c-1 0 0 0 1 1zm36 0c-1 0-2 1-2 1 0 1 0 1 1 0l2-2s-1 0-1 1zm78-1l1 1 1 1c0-1 0-1-1-1 0-1-1-1-1-1zm-111 3v1h1c0 1 1 1 1 0s-2-2-2-1zm28 0v1c0 1 0 1 0 0h1l1-1h-2zm100 1c0 1 0 1 1 1 0 1 1 1 1 1l-1-1-1-1zm-126 1s1 0 1 1c0 0 2 1 2 0s0-1-1-1v1c0-1-1-1-1-1s0-1-1-1v1zm24 0l-1 1v-1c-1 0-1 0-1 1s2 0 2 0c0-1 1-1 1-1v-1c-1 0-1 1-1 1zm-21 1c1 1 2 1 2 0h-1-1zm18 0v1c1 0 1-1 0-1zm106 1h2c-1-1-2-1-2 0zm-13 0v1c1 1 2 2 2 1-1 0-1 0-1-1 1 0 0-1-1-1s-1 0 0 0zm14 1v1h1c1 1 1 0 1-1h-2zm-12 3c1 1 2 1 2 1s0-1-1-1h-1zm14 0h1v1c0 1 1 2 1 2h1c-1-1-1-1-1-2s-2-2-2-1zm-11 4c0 1 0 1 1 1 1 1 1 1 1 0 0 0 0-1-1-1h-1zm2 2v2l1 1h1c0 1 0 1 0 0v-1h-1c0-1-1-2-1-2-1 0-1 0 0 0zm33 2l4 4c1-1 0-1-1-3-2-1-3-1-3-1zm-213 2v1c-1 0-1 0 0 0 0 0 1 0 1-1h35c0-1-36-1-36 0zM2 245v73-146h57l57-1H2v74zm154-73h24c6-1 1-1-12-1s-18 0-12 1zm103 0h23c7-1 1-1-11-1-13 0-18 0-12 1zm73 0h15c4-1 1-1-8-1-8 0-12 0-7 1zm51 0h18c5-1 1-1-9-1s-14 0-9 1zm160 0h15v146-147h-30l15 1zm196 0h61c17-1 3-1-30-1-34 0-48 0-31 1zm-328 0s0 1 1 1c0 0 1 1 1 0h-1l-1-1zm-165 1v1l1-1v-1c-1 0-1 0-1 1zm406 0s0 1 1 1v-1-1c-1 0-1 0-1 1zm-460 0c0 1 0 1 1 1v-1h-1zm314 1c-1 0-1 0-1 1-1 0-1 0-1 1s2 0 2-2l1-1c-1 0-1 0-1 1zm-94 1h1s1 0 1 1 0 2 1 2v-1l-1-1c0-1-2-2-2-1zm-166 1s-1 0-1 1c1 0 1 0 1-1v-1 1zm-53 0v2c1 0 1-1 0-1 0 0 0-1 1 0v-1h-1zm184 1l1 1c0 1 1 1 1 0 0 0-1 0-1-1h-1zm89 1l-1 1h1c1 0 1-1 1-1 0-1 0-1-1 0zm37-1c0 1-1 1 0 1v1c0-1 0-1 1-1 1-1 0-1-1-1zm-88 2l1 1h1s0-1-1-1c-1-1-1-1-1 0zm-36 1c1 0 1 1 1 1 1-1-1-2-1-2v1zm122 0v1s0-1 1-1 1 0 1-1c-1 0-1 1-2 1zm-307 0v1c1 0 1 0 1-1h-1zm270 0c-1 1-1 3-1 3l2-1h-1v-1h1v-1c0-1 0-1-1 0zm-221 1v1h1c-1 0 0 0 0 0v-1c0-1-1-1-1 0zm174 0v1h1c0 1 0 2 1 2s1 0 0 0v-2s-2-2-2-1zm-36 1v1c0 1 0 1 1 1l1 1c0-1 0-1-1-1v-1l-1-1c-1 0-1 0 0 0zm119 0l-1 1v1h-1c0 1 2 0 2-1l1-1h-1zm-258 2l1 1c-1 1-1 1 0 1v-1c0-1 0-2-1-1zm220 0c-1 1-1 1-1 2 0 0 0 1-1 1 1 0 2-1 2-2 1 0 1 0 1-1h-1zm-266 1c-1 1-1 1 0 1v-1c1 0 1 0 0 0 0-1 0-1 0 0zm223 0l1 1h1l-1-1h-1zm-36 1c0 1 2 1 2 1l-1-1h-1zm-141 2v1c-1 0-1 0 0 0l1-1-1-1v1zm179 0h1c0 1 1 2 1 2 1 0 1 0 0 0v-1c0-1-2-2-2-1zm-224 0c-1 0-1 2 0 2s1 0 0-1v-1zm299 0l-1 1c0 1 0 1 1 0s1-1 0-1zm-112 1h1c1 0 1 0 1 1v-1h-1c-1-1-1-1-1 0zm-143 2v1c-1 0 0 0 0 0s1 0 1-1v-1c-1 0-1 0-1 1zm145 0l1 1h1s0-1-1-1-1-1-1 0zm108 0c-1 0-1 1-1 1 1 0 2-1 2-1 0-1-1-1-1 0zm-71 0c0 1 1 1 1 1 1 1 2 1 2 1s-1-1-2-1c0-1-1-1-1-1zm-226 1s0 1 1 1v-1h-1c0-1 0-1 0 0zm260 1l-1 1 1-1 1-1c0-1 0-1-1 1zm-69 0c0 1 1 1 2 1 0 0-1-1-2-1zm104 0v1c0 1 0 1-1 1v1s2-1 2-2v-1c1 0 1 0 0 0h-1zm-67 1h1v1c0 1 1 2 2 2v-1c-1 0-1 0-1-1s-2-2-2-1zm30 1c-2 2-2 4 0 2 0-1 1-1 0-1 0-1 0-1 1-1 0-1 0-1-1 0zm-65 0v2c0 1 2 2 2 1-1 0-1-1-1-1 1-1 0-2-1-2s-1 0 0 0zm-151 1v1s1 0 0 0c0 0 0 1 1 1v-2h-1zm-40 1v1h1c-1 0-1 0 0-1-1-1-1-1-1 0zm229 1h1c1 1 1 0 0 0 0 0-1 0-1-1v1zm357 59v-30 30zm-332-59v1c-1 0-1 0-1 1l-1 1v1c1 0 2-1 1-2 0-1 1-1 1-1h1c0-1 0-1-1-1zm-215 1v1c1 0 1 0 0 0v1c1 0 1-1 1-1 0-1 0-1-1-1zm413 0c0 1 2 1 2 1v-1h-2zm36 0v1s1 0 2-1h-2zm-199 1s-1 0-1 1c0 0 1 0 1-1 2-1 2-1 0 0zm-288 0c-1 0 0 2 0 2 1 0 1-1 1-1-1 0-1 0-1-1h1-1zm192 0s2 1 2 0h-2zm37 0l1 1c0 1 1 2 2 2l-1-1v-2c-1-1-2-1-2 0zm225 1l1 1c1 0 1 0 0-1s-2-1-1 0zm31 0c-1 1-1 1 0 1 0-1 1-1 1-1 0-1 0-1-1 0zm-199 1c-1 1 0 1 1 0 1 0 1 0 0 0h-1zm-36 1s0 1 1 0v-1l-1 1zm-212 0s0 1-1 1h1v-1-1 1zm418 0c0 1 0 1 1 1 0-1-1-1-1-1v-1 1zm27 0v1c1 0 1-2 1-2-1 0-1 1-1 1zm-482 1v1c1 0 1 0 1-1h-1c0-1 0-1 0 0zm231 0s0 1 1 1 1 0 0-1h-1zm-258 1v1c1 0 1 1 1 1 0 1 0 1 0 0v-1l-1-1v-1 1zm221-1l1 1c1 1 1 1 1 0l-1-1h-1zm-158 2v1c-1 0-1 0 0 0 0 0 1 0 1-1l-1-1v1zm197 1s1 0 0 1c0 0 1 2 2 1 1 0 1 0 0 0v-1l-1-1c-1-1-1-1-1 0zm13 0l-1 1 1-1c1 0 2 0 2-1l-2 1zm37-1l-1 1s2 0 2-1h-1zm-87 1h1c0 1 1 1 1 1 0-1-2-2-2-1zm-224 55v28c1-15 1-40 0-55v27zm273-53c-1 1-1 2 0 2v-1c1 0 1-1 1-1 0-1-1-1-1 0zm188 0s-1 1-2 1h-1 1c1 0 3-1 2-1 0-1 0 0 0 0zm-371 1s0 1 1 0h-1s0-1 1-1h-1v1zm136-1v1c0 1 1 1 1 1 1 1 1 1 1 2 0 0 1 2 2 2v-1c-1 0-1-1-1-1 0-1-1-2-1-2s-1 0 0 0c0-1-1-2-2-2zm223 1v1c-1 0-1 0 0 0h1c0-1 0-1-1-1zm-142 1v1s1-1 2-1c0 0-1-1-2 0zm-245 0v2c1 0 1 0 0-2zm209 0s0 1 1 1c0-1 0-1-1-1zm213 0c0 1 1 1 1 1 1 0 2-1 1-1h-1c0 1 0 1 0 0h-1zm-454 1s0 2 1 2v-1c-1 0-1 0 0-1h-1zm413 0c-1 0 0 1 0 1 1 0 1-1 1-1s-1-1-1 0zm44 0c0 1 0 1 1 1s1-1 0-1c0-1 0 0 0 0h-1zm-398 1c0 1 1 1 1 1v-1c-1 0-1 0 0-1-1 0-1 0-1 1zm351 0s0 1 1 1 1-1 1-1c0-1 0-1-1 0 0-1 0-1-1 0zm-437 0c1 0 1 1 0 1 0 1 1 0 1-1h-1zm262 0v1h1c0 1 1 2 1 2 1 0 1 0 0 0v-2c0-1-2-2-2-1zm41 0c0 1-1 1-1 1v1s-1 0-1 1c0 0 2-1 2-2 0 0 0-1 1-1h-1zm-36 0v1c-1 1-1 1-1 2-1 0-1 0 0 0s1-1 1-2v-1zm169 0c-1 1 0 1 0 1h1c0-1-1-1-1-1zm-378 1v1c1 0 1 0 0 0v1c1 0 1 0 1-1s-1-1-1-1zm-30 2s0 1 1 1v-1h-1c0-1 0-1 0 0zm57 0c0 1 1 1 1 1v-1c-1 0-1 0 0 0v-1c-1 0-1 0-1 1zm345 1v1l1-1c0-1 1-1 0-1l-1 1zm63-1c0 1 1 1 2 1 0 0 1 0 1 1l1 1v-1c-1 0-1-1-1-1l-1-1c0 1-1 0-1 0 0-1-1-1-1 0zm-492 0v2s1 0 1-1 0-1-1-1-1 0 0 0zm427 2v1c-1 0 0 0 0 0s1-1 1-2c-1 0-1 0-1 1zm-370 0l-1 1c1 0 1 0 1-1zm170 0s1 0 2 1h1l-1-1h-2zm-144 1c0 1 1 2 1 1v-1c1-1 1-1 0-1l-1 1zm342 0l-3 3c-1 0-1 0-1 1 1 0 5-3 5-4h-1zm73 1c0 1 3 3 3 3 1 0 0-1 0-1-1 0-3-2-3-2v-1s-1 0 0 1zm-497 0s-1 1 0 1c0 0 1 0 1-1s-1-1-1-1c-1 0-1 0 0 1zm297 0c-1 0-1 0-1 1l1-1c1-1 1-1 0 0zm-69 0c0 1 0 1 1 1h1s-1-1-2-1zm-173 1s0 1-1 1h1v-1-1 1zm26 1c0 1 1 2 1 1 1 0 0 0 0-1h-1zm214 0c-1 1-1 1 0 1 0 1 0 0 0 0 0-1 1-1 1-1h-1zm-294 1c-1 0-1 1-1 1 1 1 1 0 1-1v-1c-1 0-1 0 0 1zm230 0c0 1 1 1 1 1 0-1-1-2-2-2 0 0 0 1 1 1zm-202 1c-1 1-1 1 0 1s1 0 0 0v-1c1 0 1 0 0 0zm264 1v1h-1v1l2-2v-1c1 0 1 0 0 0 0 0-1 0-1 1zm-212 0c0 1 0 2 1 1h-1v-1zm151 0s0 1 1 1c0 1 1 2 1 2v-1c-1 0-1 0-1-1 0 0 0-1-1-1 0 0-1 0 0 0zm-231 1c1 0 1 0 1 1h-1c1 1 1 0 1-1v-1l-1 1zm52 0c-1 1-1 1 0 1v1c-1 0-1 0 0 0s1 0 0-1v-1zm451 1c1 1 1 1 1 0h-1c0-1 0-1 0 0zm-89 0c0 1-1 1-1 2-1 0-1 0 0 0 0 0 0-1 1-1 0 1 0 0 1 0 1-1 1-2-1-1zm-386 1s0 1 1 1c0 0 1 0 0-1v-1c-1 0-1 0-1 1zm476 0l1 1h1l-1-1h-1zm-425 0c0 1 0 2 1 2v-1c-1 0-1-1-1-1zm-78 1c1 0 1 1 0 1 0 1 1 0 1-1h-1zm50 0v2c-1 0-1 0 0 0 0 0 1 0 1-1s-1-1-1-1zm-22 2c0 1 0 1 1 1 0-1-1-1-1-2v1zm382 0c-1 0 0 2 0 2 1 0 1-1 1-1v-1s1 0 1-1c0 0-1 0-2 1zm-123 0l-1 1h1v-1h1c0-1-1 0-1 0zm218 0s1 1 2 1h1l-1-1h-1c-1-1-1-1-1 0zm-428 1v1h1v-1c-1 0-1 0 0-1-1 0-1 0-1 1zm385 0s1 0 1 1h1c0-1-1-2-2-1-1 0-1 0 0 0zm-461 0v2l1-1v-1h-1zm408 1c-1 0 0 0 0 0h1s-1-1-1 0zm-359 0c0 1-1 1-1 1 1 0 1 0 1-1zm235 0v1c0 1-1 1-1 1v1s2-1 2-2v-1c1 0 1 0 0 0h-1zm-49 1c-1 0 0 0 0 1h1c0 1 1 0 1 0 0-1-2-2-2-1zm212 0s0 1-1 1c-1-1-2 0-2 1h1s0-1 1-1 2 0 1-1h1c1 0 0 0 0 0-1-1-1 0-1 0zm-41 2c0 1-1 1 0 1v0h1v-1c-1 0-1 0 0 0v-1s-1 0-1 1zm-405-1v2c1-1 1-2 0-2zm470 1c0 1 1 1 1 1v-1c-1 0-1-1-1-1-1 0-1 0 0 1zm-442 0v1c1 0 1 0 0 0l1-1h-1zm19 0c0 1-1 1-1 1 1 0 1 0 1-1v-1 1zm189 1h1s-1-1-2-1l1 1zm206-1c0 1-1 1-1 2-1 1-2 2 0 0l1-1s0-1 1-1h-1zm30 1c-1 0 0 1 0 1 1-1 3 2 4 3 0 1 0 1 1 1 0-1-1-1-2-3-3-2-3-3-3-2zm36 1c0 1 0 1 1 1v2c1 0 1 0 1-1-1 0-1 0 0 0 0-1 0-1-1-2h-1zm-507 1v1c1-1 1-2 0-2v1zm236 0l1 1v2c1 0 1-2 0-3 0 0 0-1-1-1v1zm42 1s-1 0-1 1c0 0 1 0 1-1 2-1 2-1 0 0zm-235 1c0 1 0 1 1 1v1c-1 0-1 0 0 0 0 0 1 0 0-1 0-1 0-1-1-1zm393 0c-2 1-2 2-2 2 1 1 1 0 1 0 0-1 0-1 1-1l1-1h-1zm-435 1c-1 1-1 1 0 1 1-1 1-2 0-2v1zm276 0c0 1 1 2 1 2 1 0 1 0 0-1 0-1 0-1-1-1 0 1 0 1 0 0h1l-1-1v1zm-249 1c0 1 1 1 1 1 1 0 1 0 0 0v-2l-1 1zm373-1v2c1 0 1-1 1-2h-1zm75 1c-1 0 0 0 0 0 1 0 1 1 1 1h1c0-1-2-2-2-1zm-240 1l-1 1 1-1c1 0 1-1 1-1l-1 1zm274-1c-1 1 0 2 0 2v-1h1v-1h-1zm-77 1c-1 1-1 1-1 2 1 1 1 1 2 0 0-2 0-2-1-2zm-390 1c-1 0 0 0 0 0v1c-1 0-1 0 0 0 0 0 1 0 1-1 0 0-1-1-1 0zm357 0s1 1 0 1h1v-1c-1-1-1-1-1 0zm-398 0v1h-1c1 1 1 1 1 0v-1zm276 0s1 1 2 1v-1c-1 0-2-1-2 0zm-43 0c0 1 0 1-1 1h-1c0 1 0 1 1 0 1 0 1 0 1-1zm276 1c-1 1-1 1 0 1v-1c1 0 1 0 0-1v1zm-231 1c0 1 1 2 2 2 0 0 0-1-1-1l-1-1zm-250 1c0 1 0 1 1 1v-1h-1zm-27 0s0 1-1 1v1s1 0 1-1v-1s-1 0 0 0zm39 0v1c-1 0 0 0 0 0h1v-1h-1zm389 1c0 1 0 2 1 1h-1v-1zm80 0c0 1 1 1 1 1s1 0 0 0v-1h-1zm-229 0c0 1 1 2 2 2 0-1-1-1-1-1l-1-1zm198 1c1 1 1 0 1 0s-1-1-1 0zm-249 1c-1 0-1 0 0 0h1v-1s-1 0-1 1zm52 1c0 1 2 2 2 1v-1h-1c-1-1-1-1-1 0zm-413 1h38c10-1 2-1-19-1s-29 0-19 1zm359 0c-1 0-1 1-1 1v1c-1 1-1 1 0 1 0 0 1-1 1-2 0 0 1 0 1-1h-1zm56 1c0 1 2 2 2 1h-1l-1-1zm-246 3c1 1 1 1 0 1 1 0 1 0 1-1s-1-1-1 0zm248 0s1 1 2 1l-1-1s-1 0-1-1v1zm-60 0l-1 1c1 0 2-1 2-1h-1zm61 2c0 1 2 2 2 1l-1-1h-1zm-63 1c-1 0-1 1-1 1 1 0 2-2 2-2s-1 0-1 1zm-191 0c-1 1-1 1 0 1v-1c1 0 1 0 0 0 0-1 0 0 0 0zm4 0h1v1c-1 0-1 0 0 0 0-1 0-2-1-1zm475 0c0 1 0 1 1 0h-1zm-223 1c0 1 2 2 2 2 0-1 0-1-1-1 0 0 0-1-1-1zm-67 1s-1 0 0 1l1-1c0-1 0-1-1 0zm205 2v-1 1zm-393-1c-1 0-1 2 0 2v-1c0-1 0-1 0 0 0 0 1 0 1-1h-1zm3 1c-1 0-1 1 0 1l1-1c0-1-1-1-1-1v1zm183 0l-1 1h2l1-1c0-1 0-1-2 0zm71 0s0 1 1 1h1s-1 0-1-1h-1zm-72 3l-1 1 1-1c1 0 1 0 1-1l-1 1zm73-1c0 1 1 1 1 1 1 1 2 1 2 1s-1-1-2-1c0-1-1-1-1-1zm-258 1c0 1 0 1 1 1s2 0 2-1h-3c0-1 0-1 0 0zm221 1v2l1-1v-1c1 0 1-1 1-1s-1 0-2 1zm142-1c0 1 1 1 1 3v2-2c0-2-1-3-1-3-1 0-1 0 0 0zm-179 1c0 1 0 1-1 1h-1c0 1 0 1 1 1 1-1 2-1 1-1v-1zm76 1s1 0 1 1h1l-1-1c-1-1-1-1-1 0zm-37 0c0 1 0 1 1 1 1 1 1 0 1 0s0-1-1-1h-1zm-4 2v2h-1c0 2 2 0 2-1s0-1 1-1c0-1 0-1-1-1l-1 1zm43 0s0 1 1 1c0 0 1 1 1 0 0 0-1 0-1-1h-1zm-38 0l1 1c1 1 1 1 1 0l-1-1h-1zm39 3h1c1 1 2 1 2 1s-1-1-2-1c0-1-1-1-1 0zm-83 0c-1 0-1 1 0 0h1v-1l-1 1zm47 0c0 1 1 1 1 1s-1-2-2-2c0 0 0 1 1 1zm-48 2h-1c-1 0-1 1-1 1 1 0 0 1 0 1-1 1-1 1 0 1s1-1 1-2h1v-1-1 1zm86 0l1 1h1l-1-1h-1zm130 0v1h1c-1 0-1-1-1-1zm-179 1c-1 0-1 1-1 1h1c1-2 1-2 0-1zm230 1h-1v1c1 0 1 0 1-1v-1 1zm-217 0c0 1 2 1 2 1 0-1-1-1-1-1h-1zm38 0c0 1 0 1 1 1 0 1 1 1 1 1l-1-1-1-1zm-241 1c0 1 0 1 1 0v-1c1 0 0 0 0 0-1 0-1 0-1 1zm187 1v1c1 0 1 0 1-1l1-1c-1 0-1 0-2 1zm-37 1h-1c1 0 2-1 2-1s-1 0-1 1zm188-1l1 1c0-1 0-1-1-1zm-95 1c-1 0 0 0 0 0 2 1 2 0 1 0s-1 0-1-1v1zm127 0l1 1c1 0 1 0 0-1h-1zm-371 1c0 1 1 1 1 1v-1c1-1 1-1 0-1l-1 1zm187 0v1c0 1-1 1-1 1h-1c0 2 2 0 2-1l1-1v-1l-1 1zm231 0c0 1-1 2-1 2v1h-1c-1 1 1 0 2 0v-2c1 0 1 0 1-1 1-1 0-1-1 0zm-269 1c-1 0-1 1-1 1 1 0 2-1 2-2l-1 1zm58 0h1l1 1v-1s-2-1-2 0zm38 0l1 1c1 0 2 0 1-1h-2zm95 0c1 1 1 1 0 1v1h1v-1c0-1 0-1-1-1zm-192 1c0 1 0 1-1 1 0 0-1 0 0 1l1-1v-1zm-148 1v1c0-1 0-1 1-1h-1zm209 0l1 1c0 1 2 2 2 1h-1l-1-1s0-1-1-1c0 0-1 0 0 0zm38 0c0 1 0 1 1 1 1 1 1 0 0 0l-1-1zm94 1h1c0 1 0 1 0 0 0 0 0-1-1-1v1zm33 0h1l1 1c-1-1-2-2-2-1zm-228 2l-2 1 2-1 1-1c0-1 0-1-1 1zm269-1c-1 1-3 2-3 3l-1 1v1s3-3 3-4h1l1-1h-1zm-166 1v1c2 0 2 0 1-1h-1c0-1 0-1 0 0zm-250 1s0-1 1-1h-1v1zm184-1l-1 1c0 1 0 0 1 0 2-1 2-1 0-1zm193 0c0 1 3 4 4 3 0 0-1-1-2-1v-1l-2-1zm-34 2c0 1 1 2 1 1 1-1 1-2 0-2l-1 1zm-92 0c0 1 1 1 1 1h1c-1 0-1-1-1-1h-1zm-69 1c-1 0-1 1 0 1l1-1v-1c1 0 0 0 0 0s-1 0-1 1zm32 0s0 1 1 1c1 1 1 1 1 0 0 0-1 0-1-1h-1zm168 1v1h1c1 0 1 0 0 0v-1l-1-1v1zm-38 0l1 1v-1h-1zm-91 1h1c1 1 1 0 0 0 0 0-1 0-1-1v1zm157-1c0 1-1 1-1 1-1 0-1 0-2 1h-1v1c1 0 1 0 2-1 1 0 2-1 2-2zm-230 1v2h-1c0 1 2 0 2-1v-1c1 0 1 0 0 0h-1zm204 0c0 1 0 1 1 1 0-1-1-1-1-1zm-168 1c1 1 1 1 2 1 0-1-2-2-2-2v1zm230 1h-1c0 1 1 0 2 0 0-1 0-1-1 0zm-43 0h1c1 1 1 1 1 0h-1c0-1 0-1-1 0zm-10 1c-1 1-1 1 0 0 1 0 1 0 0 0 0-1 0 0 0 0zm-176 0c1 0 1 1 1 1 0 2 2 3 2 2s0-1-1-1c0-1-1-2-1-2h-1zm-77 1c-1 0-1 1 0 0h0zm304 0c-1 0-1 1-1 1l2-1c0-1 0-1-1 0zm-96 0c0 1 0 1 1 1 0 1 1 1 1 1 0-1-1-1-1-1-1 0-1-1-1-1zm-210 2c0 1-1 1-1 1 1 1 0 1 0 1-1 1-1 1 0 1s1-1 1-2h1v-1h-1zm38 0v1c0 1 0 1 1 0s1-1-1-1zm266 1c-1 0-9 8-9 9 0 0 0 1 0 0s3-4 4-4 2-1 2-1c1-2 2-3 3-3l1-1v-1l-1 1zm-93 0l1 1h1v1c1-1 1-1 1 0l-2-2h-1zm-129 0c0 1 0 1 1 1h1c0 1 0 1 0 0h-1s0-1-1-1zm-224 1c0 1 1 2 1 1 1 0 0 0 0 0v-1c1 0 1 0 0 0h-1zm178 1c-1 1 0 1 1 0 1 0 1-1 0-1 0 0 0 1-1 1zm47 0l1 1 1 1c0-1 0-1-1-1 0-1-1-1-1-1zm132 1c1 1 1 1 1 2 1-1 0-1 0-2-1-1-1-1-1 0zm-217 1h-1c1 0 2-1 2-1s-1 0-1 1zm-140 0c0 1 0 2 1 1h-1v-1c1 0 1 0 0 0zm177 0c0 1-1 1 0 1 0 1-1 1-1 1s-1 0-1 1c0 0 2-1 2-2l1-1h-1zm51 1c0 1 1 1 1 1s-1-2-2-2c0 0 0 1 1 1zm-90 1l-1 1c1 0 2-1 2-2l-1 1zm221 0h1c0-1 0-1-1 0zm2 1l1 1s0 1 1 1v1-2c-1-1-2-2-2-1zm-362 1c0 1 0 1 1 1 0-1 0-1-1-1l1-1h-1v1zm138 0h-1s-1 1 0 1c0 0 1 0 1-1v-1 1zm93 1c0 1 2 1 2 1l-1-1h-1zm39 0c0 1 0 1 1 1s1 0 0 0l-1-1zm165 1v1h-1c-1 0-2 1-2 1v1c1-1 1-1 2-1 0 0 1 0 1-1l1-1c1-1 1-1 0-1 0 0-1 0-1 1zm-299 1l-2 1 2-1s1 0 1-1l-1 1zm-137 0c0 1 0 1 1 1v-1c-1 0-1 0 0 0v-1c-1 0-1 0-1 1zm175 0c-1 0-1 0-1 1l1-1c1-1 1-1 0 0zm192 0h1c1 0 1 1 2 1 0-1-1-2-2-2s-1 0-1 1zm-95 1s1 0 1 1c1 0 1 0 1-1h-2zm99 0c0 1 3 3 3 2h1c0 1 0 0 0 0s0-1-1-1h-1v-1 1h-1v-1h-1zm-198 1c-1 1-1 1 0 0 1 0 1-1 1-1l-1 1zm258 0v1h-1v-1 1h-1c-1 0-1 0-1 1h1s3-1 3-2c1 0 1 0 0 0 0-1-1 0-1 0zm-432 1c0 1 1 1 1 1v-1c0-1 0-1-1-1v1zm236 0h1l1 1c0-1-2-2-2-1zm39 0c0 1 1 1 1 1h1c0-1-2-1-2-1zm-103 2v1c0 1 0 1 1 0v-1-1c1 0 1 0 0 0 0 0-1 0-1 1zm66 0s0 1 1 1c0 1 1 1 1 0 0 0-1-1-2-1zm142 0s0 1 1 1 1 0 1-1h-2zm3 1c-1 0-1 0 0 0 0 1 0 0 0 0h1c0 1 0 1 0 0s0-1-1 0zm38 1h1c1 0 1 0 0 0-1-1-1-1-1 0zm0 0z"/></g></g></svg>